<svg xmlns="http://www.w3.org/2000/svg" viewBox="0 0 504 128.8"><defs><style>.cls-1{fill:#139ad6;}.cls-2{fill:#263b80;}.cls-3{fill:#232c65;}</style></defs><title>Asset 1</title><g id="Layer_2" data-name="Layer 2"><g id="Capa_1" data-name="Capa 1"><path class="cls-1" d="M389.6,33.6H362.4c-1.6,0-3.2,1.6-4,3.2l-11.2,70.4a2.12,2.12,0,0,0,2.4,2.4H364a2.12,2.12,0,0,0,2.4-2.4l3.2-20c0-1.6,1.6-3.2,4-3.2h8.8q27.6,0,31.2-26.4c1.6-7.2,0-13.6-3.2-17.6-4.8-4-12-6.4-20.8-6.4M392.8,60c-1.6,9.6-8.8,9.6-16,9.6H372l3.2-18.4c0-.8.8-1.6,2.4-1.6h1.6c4.8,0,9.6,0,12,3.2,1.6.8,1.6,3.2,1.6,7.2"/><path class="cls-2" d="M193.6,33.6H166.4c-1.6,0-3.2,1.6-4,3.2l-11.2,70.4a2.12,2.12,0,0,0,2.4,2.4h12.8c1.6,0,3.2-1.6,4-3.2l3.2-19.2c0-1.6,1.6-3.2,4-3.2h8.8q27.6,0,31.2-26.4c1.6-7.2,0-13.6-3.2-17.6-4.8-4-11.2-6.4-20.8-6.4M196.8,60c-1.6,9.6-8.8,9.6-16,9.6h-4L180,51.2c0-.8.8-1.6,2.4-1.6H184c4.8,0,9.6,0,12,3.2.8.8,1.6,3.2.8,7.2"/><path class="cls-2" d="M276,59.2H263.2c-.8,0-2.4.8-2.4,1.6l-.8,4-.8-1.6c-3.2-4-8.8-5.6-15.2-5.6-14.4,0-27.2,11.2-29.6,26.4a23.84,23.84,0,0,0,4.8,20c4,4.8,9.6,6.4,16.8,6.4,12,0,18.4-7.2,18.4-7.2l-.8,4a2.12,2.12,0,0,0,2.4,2.4h12c1.6,0,3.2-1.6,4-3.2l7.2-44.8c-.8-.8-2.4-2.4-3.2-2.4M257.6,84.8c-1.6,7.2-7.2,12.8-15.2,12.8a12.79,12.79,0,0,1-8.8-3.2q-2.4-3.6-2.4-9.6A14.65,14.65,0,0,1,245.6,72c4,0,6.4,1.6,8.8,3.2,2.4,2.4,3.2,6.4,3.2,9.6"/><path class="cls-1" d="M471.2,59.2H458.4c-.8,0-2.4.8-2.4,1.6l-.8,4-.8-1.6c-3.2-4-8.8-5.6-15.2-5.6-14.4,0-27.2,11.2-29.6,26.4a23.84,23.84,0,0,0,4.8,20c4,4.8,9.6,6.4,16.8,6.4,12,0,18.4-7.2,18.4-7.2l-.8,4a2.12,2.12,0,0,0,2.4,2.4h12c1.6,0,3.2-1.6,4-3.2l7.2-44.8c-.8-.8-1.6-2.4-3.2-2.4M452.8,84.8c-1.6,7.2-7.2,12.8-15.2,12.8a12.79,12.79,0,0,1-8.8-3.2q-2.4-3.6-2.4-9.6A14.65,14.65,0,0,1,440.8,72c4,0,6.4,1.6,8.8,3.2a9.18,9.18,0,0,1,3.2,9.6"/><path class="cls-2" d="M345.6,59.2H332a4.16,4.16,0,0,0-3.2,1.6L311.2,88l-8-25.6c-.8-1.6-1.6-2.4-4-2.4H286.4c-1.6,0-2.4,1.6-2.4,3.2l14.4,42.4-13.6,19.2c-.8,1.6,0,4,1.6,4h12.8a4.16,4.16,0,0,0,3.2-1.6l44-63.2c2.4-2.4.8-4.8-.8-4.8"/><path class="cls-1" d="M486.4,36l-11.2,72a2.12,2.12,0,0,0,2.4,2.4h11.2c1.6,0,3.2-1.6,4-3.2L504,36.8a2.12,2.12,0,0,0-2.4-2.4H488.8c-.8-.8-1.6,0-2.4,1.6"/><path class="cls-2" d="M92,9.6C86.4,3.2,76,0,61.6,0h-40C19.2,0,16.8,2.4,16,4.8L0,109.6c0,2.4,1.6,4,3.2,4H28l6.4-39.2V76c.8-2.4,3.2-4.8,5.6-4.8H52c23.2,0,40.8-9.6,46.4-36V32.8h0C99.2,22.4,97.6,16,92,9.6"/><path class="cls-1" d="M97.6,32.8h0v2.4c-5.6,27.2-23.2,36-46.4,36h-12c-2.4,0-4.8,2.4-5.6,4.8l-8,48.8a2.93,2.93,0,0,0,3.2,3.2H49.6c2.4,0,4.8-1.6,4.8-4v-.8l4-24.8V96.8c0-2.4,2.4-4,4.8-4h3.2c20,0,36-8,40-32,1.6-9.6.8-18.4-4-24a8.19,8.19,0,0,0-4.8-4"/><path class="cls-3" d="M92,30.4c-.8,0-1.6-.8-2.4-.8a2.94,2.94,0,0,1-2.4-.8C84,28,80.8,28,76.8,28H45.6a2.94,2.94,0,0,0-2.4.8,4.4,4.4,0,0,0-2.4,4L34.4,74.4V76c.8-2.4,3.2-4.8,5.6-4.8H52c23.2,0,40.8-9.6,46.4-36a2.94,2.94,0,0,1,.8-2.4c-1.6-.8-2.4-1.6-4-1.6-2.4-.8-2.4-.8-3.2-.8"/></g></g></svg>