<svg xmlns="http://www.w3.org/2000/svg" viewBox="0 0 132 40.12"><defs><style>.cls-1{fill:#673ab7;}.cls-2{fill:#fff;}.cls-3{fill:#f9f9f9;}</style></defs><title>Asset 1</title><g id="Layer_2" data-name="Layer 2"><g id="Layer_1-2" data-name="Layer 1"><path class="cls-1" d="M20.06,0A20.06,20.06,0,1,0,40.12,20.06,20.06,20.06,0,0,0,20.06,0Z"/><path class="cls-2" d="M29.23,14.62v.69a.61.61,0,0,1-.15.45.58.58,0,0,1-.45.16H26.52a.34.34,0,0,0-.26.09.42.42,0,0,0-.09.29V32.62a.53.53,0,0,1-.6.6H23.88a.64.64,0,0,1-.46-.15.61.61,0,0,1-.15-.45v-5.9h-.13a2.38,2.38,0,0,1-1.11,1,4.42,4.42,0,0,1-1.82.33h-.92a5.79,5.79,0,0,1-2-.32,4.46,4.46,0,0,1-1.55-1,4.13,4.13,0,0,1-1-1.53,5.61,5.61,0,0,1-.33-2V16.3a.41.41,0,0,0-.07-.27.28.28,0,0,0-.22-.11H12.31a.62.62,0,0,1-.46-.16.69.69,0,0,1-.15-.48V13.94a.56.56,0,0,1,.15-.43.62.62,0,0,1,.46-.14H21.7q-1-1.06-2-2.25c-.63-.79-1.25-1.63-1.84-2.5L17,7.29,16.1,6a1.6,1.6,0,0,1-.1-.23,1,1,0,0,1,0-.25.48.48,0,0,1,.12-.35A.49.49,0,0,1,16.45,5h1.94a1,1,0,0,1,.5.12.86.86,0,0,1,.33.35L21.5,9.16l2.28,3.66a1.29,1.29,0,0,0,.39.41.77.77,0,0,0,.44.14h4a.61.61,0,0,1,.45.14.56.56,0,0,1,.15.43v.68Z"/><path class="cls-1" d="M22.92,15.92H17.69a.36.36,0,0,0-.26.09.4.4,0,0,0-.09.29V23A2.53,2.53,0,0,0,18,24.82a2.41,2.41,0,0,0,1.82.63h.86a3.41,3.41,0,0,0,1.16-.18,2,2,0,0,0,.83-.51,2.38,2.38,0,0,0,.49-.81,3.13,3.13,0,0,0,.16-1.05V16.3a.4.4,0,0,0-.09-.29A.34.34,0,0,0,22.92,15.92Z"/><path class="cls-3" d="M53.74,23.26v5.35h-2.5V14.19h5.51a5.59,5.59,0,0,1,3.84,1.26A4.22,4.22,0,0,1,62,18.78a4.1,4.1,0,0,1-1.39,3.31,5.9,5.9,0,0,1-3.9,1.18h-3Zm0-2h3a3,3,0,0,0,2-.63,2.32,2.32,0,0,0,.7-1.82,2.49,2.49,0,0,0-.71-1.87,2.8,2.8,0,0,0-2-.72H53.74v5Z"/><path class="cls-3" d="M66.54,19.07a3.78,3.78,0,0,1,3-1.37q3.42,0,3.48,3.91v7H70.59V21.7a2.12,2.12,0,0,0-.48-1.57,2,2,0,0,0-1.41-.46A2.33,2.33,0,0,0,66.54,21v7.65h-2.4V13.4h2.4v5.67Z"/><path class="cls-3" d="M75.18,23.16a6.4,6.4,0,0,1,.62-2.84,4.55,4.55,0,0,1,1.76-1.94,4.93,4.93,0,0,1,2.59-.68,4.67,4.67,0,0,1,3.52,1.39,5.52,5.52,0,0,1,1.46,3.71v.56a6.29,6.29,0,0,1-.61,2.83,4.44,4.44,0,0,1-1.74,1.94,5,5,0,0,1-2.62.68,4.64,4.64,0,0,1-3.63-1.51,5.78,5.78,0,0,1-1.36-4Zm2.41.2A4.26,4.26,0,0,0,78.27,26a2.38,2.38,0,0,0,3.8,0,4.8,4.8,0,0,0,.67-2.78,4.29,4.29,0,0,0-.69-2.58,2.25,2.25,0,0,0-1.9-.95,2.19,2.19,0,0,0-1.87.94A4.66,4.66,0,0,0,77.59,23.36Z"/><path class="cls-3" d="M89.61,17.9l.07,1.24A3.84,3.84,0,0,1,92.8,17.7q3.35,0,3.41,3.83v7.08H93.8V21.67a2.23,2.23,0,0,0-.44-1.51,1.83,1.83,0,0,0-1.44-.49A2.33,2.33,0,0,0,89.75,21v7.62H87.34V17.9Z"/><path class="cls-3" d="M103.58,28.81a5,5,0,0,1-3.71-1.44,5.22,5.22,0,0,1-1.42-3.84v-.3a6.46,6.46,0,0,1,.62-2.86,4.7,4.7,0,0,1,1.74-2,4.57,4.57,0,0,1,2.49-.7,4.19,4.19,0,0,1,3.38,1.39,5.89,5.89,0,0,1,1.2,4v1h-7a3.17,3.17,0,0,0,.88,2.09,2.65,2.65,0,0,0,2,.78,3.26,3.26,0,0,0,2.69-1.34l1.3,1.24A4.37,4.37,0,0,1,106,28.28,5.43,5.43,0,0,1,103.58,28.81Zm-.29-9.18a2,2,0,0,0-1.6.69,3.66,3.66,0,0,0-.77,1.94h4.58v-.18a2.94,2.94,0,0,0-.64-1.83A2,2,0,0,0,103.29,19.63Z"/><path class="cls-3" d="M112.68,23.26v5.35h-2.5V14.19h5.51a5.57,5.57,0,0,1,3.84,1.26A4.22,4.22,0,0,1,121,18.78a4.1,4.1,0,0,1-1.39,3.31,5.87,5.87,0,0,1-3.89,1.18h-3Zm0-2h3a3,3,0,0,0,2-.63,2.32,2.32,0,0,0,.71-1.82,2.49,2.49,0,0,0-.72-1.87,2.78,2.78,0,0,0-2-.72h-3.08v5Z"/><path class="cls-3" d="M127.7,28.81A5,5,0,0,1,124,27.37a5.22,5.22,0,0,1-1.42-3.84v-.3a6.46,6.46,0,0,1,.62-2.86,4.7,4.7,0,0,1,1.74-2,4.57,4.57,0,0,1,2.49-.7,4.19,4.19,0,0,1,3.38,1.39,5.91,5.91,0,0,1,1.2,4v1h-7a3.17,3.17,0,0,0,.88,2.09,2.65,2.65,0,0,0,2,.78,3.26,3.26,0,0,0,2.69-1.34l1.3,1.24a4.37,4.37,0,0,1-1.72,1.49A5.43,5.43,0,0,1,127.7,28.81Zm-.29-9.18a2,2,0,0,0-1.6.69,3.66,3.66,0,0,0-.77,1.94h4.58v-.18a2.88,2.88,0,0,0-.64-1.83A2,2,0,0,0,127.41,19.63Z"/></g></g></svg>