<?xml version="1.0" encoding="utf-8"?>
<!-- Generator: Adobe Illustrator 22.1.0, SVG Export Plug-In . SVG Version: 6.00 Build 0)  -->
<svg version="1.1" id="Layer_1" xmlns="http://www.w3.org/2000/svg" xmlns:xlink="http://www.w3.org/1999/xlink" x="0px" y="0px"
	 viewBox="0 0 132 48" style="enable-background:new 0 0 132 48;" xml:space="preserve">
<style type="text/css">
	.st0{display:none;}
	.st1{display:inline;}
	.st2{fill:#673AB7;}
	.st3{fill:#FFFFFF;}
	.st4{fill:#212121;}
</style>
<g id="Layer_1_1_" class="st0">
	<title>Group 39</title>
	<desc>Created with Sketch.</desc>
	<g id="Page-1" class="st1">
		<g id="_x30_-homepage" transform="translate(-24.000000, -12.000000)">
			<g id="header">
				<g id="Group-39" transform="translate(24.000000, 12.000000)">
					<g id="Group-6">
						<g id="Group-5">
							<path id="Fill-16" class="st2" d="M47.7,23.9c0,12.9-10.4,23.4-23.3,23.4S1,36.9,1,23.9S11.5,0.5,24.4,0.5S47.7,11,47.7,23.9
								"/>
							<path id="Fill-18" class="st3" d="M28.1,27.3c0,0.5-0.1,0.9-0.2,1.2c-0.1,0.4-0.3,0.7-0.6,0.9c-0.3,0.3-0.6,0.5-1,0.6
								s-0.8,0.2-1.4,0.2h-0.5H24c-0.9,0-1.6-0.2-2.1-0.7s-0.7-1.2-0.7-2.2v-3.9v-3.9c0-0.1,0-0.3,0.1-0.3c0.1-0.1,0.2-0.1,0.3-0.1
								h3h3c0.1,0,0.2,0,0.3,0.1c0.1,0.1,0.1,0.2,0.1,0.3v3.9v3.9H28.1z M34.3,16.1h-2.2h-2.2h-0.1h-0.1c-0.2,0-0.4-0.1-0.5-0.2
								c-0.2-0.1-0.3-0.3-0.4-0.5L26,11.2l-2.6-4.3c-0.1-0.2-0.2-0.3-0.4-0.4c-0.2-0.1-0.4-0.1-0.6-0.1h-1.1h-1.1
								c-0.2,0-0.3,0-0.4,0.1s-0.1,0.2-0.1,0.4c0,0.1,0,0.2,0,0.3c0,0.1,0.1,0.2,0.1,0.3l1,1.5l1,1.5c0.7,1,1.4,2,2.1,2.9
								s1.5,1.8,2.3,2.6h-5.5h-5.5c-0.2,0-0.4,0.1-0.5,0.2s-0.2,0.3-0.2,0.5v0.8v0.8c0,0.2,0.1,0.4,0.2,0.6s0.3,0.2,0.5,0.2h1.1h1.1
								c0.1,0,0.2,0.1,0.2,0.1s0.1,0.2,0.1,0.3v4.1v4.1c0,0.9,0.1,1.6,0.4,2.3c0.3,0.7,0.6,1.3,1.2,1.8c0.5,0.5,1.1,0.9,1.8,1.1
								c0.7,0.3,1.4,0.4,2.3,0.4H24h0.5c0.8,0,1.5-0.1,2.1-0.4c0.6-0.3,1-0.7,1.3-1.2H28h0.1v3.4v3.4c0,0.2,0.1,0.4,0.2,0.5
								s0.3,0.2,0.5,0.2h1h1c0.2,0,0.4-0.1,0.5-0.2c0.1-0.1,0.2-0.3,0.2-0.5V29v-9.5c0-0.1,0-0.3,0.1-0.3c0.1-0.1,0.2-0.1,0.3-0.1
								h1.2h1.2c0.2,0,0.4-0.1,0.5-0.2s0.2-0.3,0.2-0.5v-0.8v-0.8c0-0.2-0.1-0.4-0.2-0.5S34.5,16.1,34.3,16.1z"/>
						</g>
						<g id="Group-4" transform="translate(57.462185, 14.799999)">
							<g id="Group-3">
								<path id="Fill-2" d="M2.6,7.8h3.3c0.9,0,1.6-0.2,2.1-0.7C8.4,6.6,8.7,6,8.7,5.2S8.5,3.8,8,3.3C7.5,2.9,6.9,2.6,5.9,2.6H2.6
									V7.8z M2.6,9.2v5.3H0.9V1.2h5c1.4,0,2.5,0.4,3.3,1.1s1.1,1.7,1.1,2.9S9.9,7.4,9.2,8.1C8.4,8.8,7.3,9.2,5.9,9.2H2.6z"/>
								<path id="Fill-4" d="M14.1,6L14.1,6c0.4-0.5,0.8-0.9,1.3-1.1c0.5-0.3,1-0.4,1.7-0.4c1.1,0,1.9,0.3,2.4,0.9
									C20.1,6,20.3,7,20.3,8.3v6.2h-1.7V8.3c0-0.9-0.2-1.5-0.5-1.9c-0.4-0.4-0.9-0.6-1.6-0.6c-0.5,0-1,0.1-1.4,0.4
									c-0.4,0.2-0.7,0.6-1,1v7.2h-1.7V0.3h1.7C14.1,0.3,14.1,6,14.1,6z"/>
								<path id="Fill-6" d="M24.2,9.7c0,1.1,0.2,1.9,0.7,2.6s1.1,1,2,1s1.6-0.3,2-1c0.5-0.7,0.7-1.5,0.7-2.6V9.5
									c0-1.1-0.2-1.9-0.7-2.6s-1.1-1-2-1s-1.6,0.3-2,1s-0.7,1.6-0.7,2.6V9.7z M22.5,9.5c0-1.5,0.4-2.7,1.2-3.6
									c0.8-0.9,1.8-1.4,3.2-1.4c1.4,0,2.5,0.5,3.2,1.4c0.8,0.9,1.2,2.1,1.2,3.6v0.2c0,1.5-0.4,2.7-1.2,3.6
									c-0.8,0.9-1.8,1.4-3.2,1.4c-1.4,0-2.5-0.5-3.2-1.4c-0.8-0.9-1.2-2.1-1.2-3.6V9.5z"/>
								<path id="Fill-8" d="M35,4.6l0.1,1.5l0,0c0.3-0.5,0.7-0.9,1.2-1.2s1.1-0.4,1.7-0.4c1.1,0,1.9,0.3,2.5,0.9
									C41,6,41.3,6.9,41.3,8.3v6.2h-1.7V8.3c0-0.9-0.2-1.5-0.5-1.9s-0.9-0.5-1.6-0.5c-0.5,0-1,0.1-1.4,0.4s-0.7,0.6-1,1.1v7.1
									h-1.7V4.6H35z"/>
								<path id="Fill-10" d="M47.7,5.8c-0.6,0-1.2,0.3-1.6,0.8c-0.4,0.5-0.7,1.2-0.8,2H50V8.4c0-0.7-0.2-1.3-0.6-1.8
									C49.1,6.1,48.5,5.8,47.7,5.8 M48,14.7c-1.4,0-2.5-0.4-3.3-1.3c-0.8-0.9-1.2-2.1-1.2-3.6V9.4c0-1.4,0.4-2.6,1.2-3.5
									s1.8-1.4,3-1.4c1.3,0,2.3,0.4,3,1.2s1,1.9,1,3.2V10h-6.5c0,1,0.3,1.8,0.7,2.4c0.5,0.6,1.1,0.9,2,0.9c0.6,0,1.1-0.1,1.6-0.3
									c0.4-0.2,0.8-0.4,1.2-0.7l0.7,1.1C51,13.8,50.6,14,50,14.3C49.5,14.6,48.8,14.7,48,14.7"/>
								<path id="Fill-12" d="M55.7,7.8H59c0.9,0,1.6-0.2,2.1-0.7c0.4-0.5,0.7-1.1,0.7-1.9s-0.2-1.4-0.7-1.9C60.6,2.9,60,2.6,59,2.6
									h-3.3V7.8z M55.7,9.2v5.3H54V1.2h5c1.4,0,2.5,0.4,3.3,1.1s1.1,1.7,1.1,2.9S63,7.4,62.3,8.1c-0.8,0.7-1.9,1.1-3.3,1.1
									C59,9.2,55.7,9.2,55.7,9.2z"/>
								<path id="Fill-14" d="M69.2,5.8c-0.6,0-1.2,0.3-1.6,0.8s-0.7,1.2-0.8,2h4.8V8.4c0-0.7-0.2-1.3-0.6-1.8
									C70.5,6.1,69.9,5.8,69.2,5.8 M69.4,14.7c-1.4,0-2.5-0.4-3.3-1.3c-0.8-0.9-1.2-2.1-1.2-3.6V9.4c0-1.4,0.4-2.6,1.2-3.5
									c0.8-0.9,1.8-1.4,3-1.4c1.3,0,2.3,0.4,3,1.2s1,1.9,1,3.2V10h-6.5c0,1,0.3,1.8,0.7,2.4c0.5,0.6,1.1,0.9,2,0.9
									c0.6,0,1.1-0.1,1.6-0.3c0.4-0.2,0.8-0.4,1.2-0.7l0.7,1.1c-0.4,0.4-0.8,0.6-1.4,0.9C71,14.6,70.3,14.7,69.4,14.7"/>
							</g>
							<g id="Group-2" transform="translate(0.000000, 20.507066)">
								<polygon id="Fill-20" points="0.5,4.1 1.2,4.1 1.2,0.5 0.5,0.5 								"/>
								<polygon id="Fill-22" points="5.8,4.1 5.1,4.1 3.4,1.5 3.4,4.1 2.8,4.1 2.8,0.5 3.4,0.5 5.1,3.1 5.1,0.5 5.8,0.5 								
									"/>
								<path id="Fill-23" d="M8,1v2.6h0.4c0.2,0,0.3,0,0.5-0.1C9,3.4,9.2,3.4,9.2,3.3c0.1-0.1,0.2-0.2,0.2-0.4s0.1-0.3,0.1-0.5V2.2
									c0-0.4-0.1-0.7-0.3-0.9C9.1,1.1,8.8,1,8.5,1H8z M7.4,4.1V0.5h1.1c0.3,0,0.5,0,0.7,0.1S9.6,0.8,9.7,1
									c0.2,0.2,0.3,0.3,0.4,0.5c0.1,0.2,0.1,0.4,0.1,0.7v0.2c0,0.3,0,0.5-0.1,0.7C10,3.3,9.9,3.5,9.7,3.6C9.6,3.8,9.4,3.9,9.2,4
									S8.7,4.1,8.5,4.1H7.4z"/>
								<polygon id="Fill-24" points="11.7,4.1 12.4,4.1 12.4,0.5 11.7,0.5 								"/>
								<path id="Fill-25" d="M14.8,2.8H16l-0.6-1.5L14.8,2.8z M16.1,3.3h-1.5l-0.3,0.8h-0.7L15,0.5h0.6L17,4.1h-0.7L16.1,3.3z"/>
								<polygon id="Fill-26" points="18.4,0.6 18.3,1.6 17.9,1.6 17.9,0.3 18.4,0.3 								"/>
								<path id="Fill-27" d="M21.7,3.2c0-0.1,0-0.1,0-0.2c0-0.1-0.1-0.1-0.1-0.2c-0.1,0-0.1-0.1-0.2-0.1S21.2,2.6,21,2.6
									c-0.2-0.1-0.4-0.1-0.5-0.2c-0.2-0.1-0.3-0.1-0.4-0.2C20,2.1,19.9,2,19.8,1.9s-0.1-0.2-0.1-0.4c0-0.1,0-0.3,0.1-0.4
									s0.2-0.2,0.3-0.3s0.3-0.2,0.4-0.2c0.2,0,0.4-0.1,0.6-0.1s0.4,0,0.6,0.1s0.3,0.1,0.4,0.2s0.2,0.2,0.3,0.4
									c0.1,0.1,0.1,0.3,0.1,0.4h-0.7c0-0.1,0-0.2,0-0.2c0-0.1-0.1-0.1-0.1-0.2C21.5,1.1,21.4,1,21.3,1S21.1,1,21,1s-0.2,0-0.3,0
									c-0.1,0-0.2,0.1-0.2,0.1c-0.1,0-0.1,0.1-0.1,0.2s0,0.1,0,0.2s0.1,0.2,0.2,0.3C20.7,1.9,20.9,2,21.1,2
									c0.2,0.1,0.4,0.1,0.6,0.2c0.2,0.1,0.3,0.2,0.4,0.2c0.1,0.1,0.2,0.2,0.2,0.3c0.1,0.1,0.1,0.2,0.1,0.4s0,0.3-0.1,0.4
									c-0.1,0.1-0.2,0.2-0.3,0.3C21.9,4,21.8,4,21.6,4.1c-0.2,0-0.4,0.1-0.6,0.1s-0.4,0-0.5-0.1C20.3,4,20.1,4,20,3.9
									s-0.3-0.2-0.3-0.4c-0.1-0.1-0.1-0.3-0.1-0.5h0.7c0,0.1,0,0.2,0.1,0.3c0,0.1,0.1,0.1,0.2,0.2c0.1,0.1,0.2,0.1,0.3,0.1
									c0.1,0,0.2,0,0.3,0c0.2,0,0.4,0,0.5-0.1C21.7,3.4,21.7,3.3,21.7,3.2"/>
								<path id="Fill-28" d="M26.5,2.3h0.8c0.1,0,0.2,0,0.3,0c0.1,0,0.2-0.1,0.2-0.1C28,2,28,2,28,1.9s0-0.2,0-0.2
									c0-0.1,0-0.2,0-0.2c0-0.1-0.1-0.1-0.1-0.2c-0.1-0.1-0.1-0.1-0.2-0.1C27.6,1,27.5,1,27.3,1h-0.8V2.3z M26.5,2.8v1.3h-0.7V0.5
									h1.5c0.2,0,0.4,0,0.6,0.1s0.3,0.1,0.4,0.2s0.2,0.2,0.3,0.4s0.1,0.3,0.1,0.5s0,0.3-0.1,0.5c-0.1,0.1-0.2,0.3-0.3,0.4
									c-0.1,0.1-0.3,0.2-0.4,0.2c-0.2,0.1-0.4,0.1-0.6,0.1h-0.8V2.8z"/>
								<path id="Fill-29" d="M30.5,2.8h1.1L31,1.3L30.5,2.8z M31.8,3.3h-1.5L30,4.1h-0.7l1.4-3.6h0.6l1.4,3.6H32L31.8,3.3z"/>
								<polygon id="Fill-30" points="34.8,2.2 35.7,0.5 36.5,0.5 35.2,2.8 35.2,4.1 34.5,4.1 34.5,2.8 33.2,0.5 34,0.5 								"/>
								<polygon id="Fill-31" points="38.5,0.5 39.6,3.3 40.7,0.5 41.6,0.5 41.6,4.1 40.9,4.1 40.9,2.9 41,1.3 39.8,4.1 39.4,4.1 
									38.2,1.3 38.3,2.9 38.3,4.1 37.6,4.1 37.6,0.5 								"/>
								<polygon id="Fill-32" points="45.4,2.5 43.8,2.5 43.8,3.6 45.6,3.6 45.6,4.1 43.1,4.1 43.1,0.5 45.6,0.5 45.6,1 43.8,1 
									43.8,2 45.4,2 								"/>
								<polygon id="Fill-33" points="50,4.1 49.3,4.1 47.6,1.5 47.6,4.1 47,4.1 47,0.5 47.6,0.5 49.3,3.1 49.3,0.5 50,0.5 								
									"/>
								<polygon id="Fill-34" points="54.3,1 53.1,1 53.1,4.1 52.4,4.1 52.4,1 51.2,1 51.2,0.5 54.3,0.5 								"/>
								<path id="Fill-35" d="M57.5,3.2c0-0.1,0-0.1,0-0.2c0-0.1-0.1-0.1-0.1-0.2c-0.1,0-0.1-0.1-0.2-0.1c-0.1,0-0.2-0.1-0.4-0.1
									c-0.2-0.1-0.4-0.1-0.5-0.2c-0.2-0.1-0.3-0.1-0.4-0.2c-0.1-0.1-0.2-0.2-0.3-0.3c-0.1-0.1-0.1-0.2-0.1-0.4
									c0-0.1,0-0.3,0.1-0.4c0.1-0.1,0.2-0.2,0.3-0.3s0.3-0.2,0.4-0.2c0.2,0,0.4-0.1,0.6-0.1c0.2,0,0.4,0,0.6,0.1
									c0.2,0.1,0.3,0.1,0.4,0.2c0,0.1,0.1,0.2,0.2,0.3s0.1,0.3,0.1,0.4h-0.7c0-0.1,0-0.2,0-0.2c0-0.1-0.1-0.1-0.1-0.2
									c-0.1,0-0.2-0.1-0.3-0.1s-0.2,0-0.3,0s-0.2,0-0.3,0s-0.2,0.1-0.2,0.1c-0.1,0-0.1,0.1-0.1,0.2s0,0.1,0,0.2s0.1,0.2,0.2,0.3
									c0,0.1,0.2,0.2,0.5,0.2c0.2,0.1,0.4,0.1,0.6,0.2c0.2,0.1,0.3,0.2,0.4,0.2c0.1,0.1,0.2,0.2,0.2,0.3c0.1,0.1,0.1,0.2,0.1,0.4
									s0,0.3-0.1,0.4c-0.1,0.1-0.2,0.2-0.3,0.3C57.7,4,57.5,4,57.4,4.1c-0.2,0-0.4,0.1-0.6,0.1c-0.2,0-0.4,0-0.5-0.1
									c-0.2,0-0.3-0.1-0.5-0.2c-0.1-0.1-0.3-0.2-0.3-0.4c-0.1-0.1-0.1-0.3-0.1-0.5H56c0,0.1,0,0.2,0.1,0.3c0,0.1,0.1,0.1,0.2,0.2
									c0.1,0.1,0.2,0.1,0.3,0.1s0.2,0,0.3,0c0.2,0,0.4,0,0.5-0.1C57.4,3.4,57.5,3.3,57.5,3.2"/>
								<path id="Fill-36" d="M62.5,2.8h1.1L63,1.3L62.5,2.8z M63.8,3.3h-1.5L62,4.1h-0.7l1.4-3.6h0.6l1.4,3.6H64L63.8,3.3z"/>
								<path id="Fill-37" d="M66.7,2.3h0.8c0.1,0,0.2,0,0.3,0c0.1,0,0.2-0.1,0.2-0.1C68.1,2,68.1,2,68.1,1.9s0-0.2,0-0.2
									c0-0.1,0-0.2,0-0.2c0-0.1-0.1-0.1-0.1-0.2c-0.1-0.1-0.1-0.1-0.2-0.1C67.7,1,67.6,1,67.5,1h-0.8V2.3z M66.7,2.8v1.3H66V0.5
									h1.5c0.2,0,0.4,0,0.6,0.1s0.3,0.1,0.4,0.2s0.2,0.2,0.3,0.4c0.1,0.1,0.1,0.3,0.1,0.5s0,0.3-0.1,0.5c-0.1,0.1-0.2,0.3-0.3,0.4
									c-0.1,0.1-0.3,0.2-0.4,0.2c-0.2,0.1-0.4,0.1-0.6,0.1h-0.8V2.8z"/>
								<path id="Fill-38" d="M70.9,2.3h0.8c0.1,0,0.2,0,0.3,0c0.1,0,0.2-0.1,0.2-0.1C72.3,2,72.3,2,72.4,1.9c0-0.1,0-0.2,0-0.2
									c0-0.1,0-0.2,0-0.2c0-0.1-0.1-0.1-0.1-0.2c-0.1-0.1-0.1-0.1-0.2-0.1C71.9,1,71.8,1,71.7,1h-0.8C70.9,1,70.9,2.3,70.9,2.3z
									 M70.9,2.8v1.3h-0.7V0.5h1.5c0.2,0,0.4,0,0.6,0.1s0.3,0.1,0.4,0.2S72.9,1,73,1.2c0.1,0.1,0.1,0.3,0.1,0.5s0,0.3-0.1,0.5
									c-0.1,0.1-0.2,0.3-0.3,0.4c-0.1,0.1-0.3,0.2-0.4,0.2c-0.2,0.1-0.4,0.1-0.6,0.1h-0.8C70.9,2.9,70.9,2.8,70.9,2.8z"/>
							</g>
						</g>
					</g>
				</g>
			</g>
		</g>
	</g>
</g>
<g>
	<g>
		<g>
			<g>
				<path class="st2" d="M20.061,3.941C8.982,3.941,0.001,12.922,0.001,24c0,11.079,8.981,20.059,20.059,20.059
					S40.12,35.079,40.12,24C40.12,12.922,31.139,3.941,20.061,3.941z"/>
			</g>
			<g>
				<path class="st3" d="M29.233,18.565v0.686c0,0.202-0.051,0.353-0.152,0.454c-0.101,0.101-0.252,0.152-0.454,0.152h-1.052h-1.052
					c-0.117,0-0.204,0.031-0.263,0.095c-0.058,0.064-0.087,0.16-0.087,0.287v8.161v8.159c0,0.202-0.051,0.354-0.151,0.454
					c-0.101,0.101-0.253,0.152-0.455,0.152h-0.845h-0.844c-0.202,0-0.354-0.051-0.455-0.152c-0.1-0.1-0.151-0.251-0.151-0.454V33.61
					v-2.948H23.21h-0.064c-0.256,0.446-0.628,0.78-1.117,1.004C21.541,31.889,20.936,32,20.212,32h-0.462h-0.462
					c-0.733,0-1.393-0.108-1.98-0.323c-0.588-0.214-1.102-0.537-1.543-0.968c-0.441-0.429-0.771-0.939-0.992-1.525
					c-0.22-0.588-0.331-1.254-0.331-1.996v-3.475v-3.474c0-0.116-0.024-0.207-0.072-0.271c-0.047-0.064-0.119-0.101-0.215-0.111
					h-0.925h-0.924c-0.202,0-0.353-0.054-0.454-0.16c-0.101-0.106-0.152-0.264-0.152-0.478v-0.669V17.88
					c0-0.191,0.051-0.335,0.152-0.429c0.101-0.096,0.252-0.144,0.454-0.144h4.695h4.695c-0.679-0.707-1.337-1.455-1.973-2.246
					c-0.636-0.792-1.249-1.625-1.839-2.503l-0.893-1.324L16.1,9.912c-0.042-0.073-0.073-0.151-0.095-0.23
					c-0.021-0.08-0.033-0.162-0.033-0.247c0-0.159,0.04-0.279,0.12-0.359c0.079-0.079,0.199-0.119,0.358-0.119h0.972h0.972
					c0.191,0,0.356,0.04,0.495,0.119c0.138,0.08,0.25,0.2,0.335,0.359l2.279,3.666l2.279,3.665c0.118,0.181,0.245,0.317,0.384,0.406
					c0.138,0.09,0.287,0.135,0.446,0.135h0.08h0.08H26.7h1.928c0.202,0,0.353,0.047,0.454,0.144
					c0.101,0.095,0.152,0.238,0.152,0.429V18.565z"/>
			</g>
			<g>
				<path class="st2" d="M22.922,19.856h-2.614h-2.614c-0.118,0-0.206,0.031-0.264,0.095c-0.058,0.064-0.087,0.16-0.087,0.287v3.332
					v3.33c0,0.829,0.202,1.45,0.606,1.864c0.404,0.415,1.01,0.622,1.817,0.622h0.43h0.43c0.447,0,0.836-0.057,1.167-0.171
					c0.332-0.114,0.607-0.286,0.824-0.514c0.218-0.229,0.382-0.498,0.491-0.808c0.109-0.312,0.164-0.663,0.164-1.056v-3.299v-3.299
					c0-0.127-0.029-0.224-0.088-0.287C23.126,19.887,23.039,19.856,22.922,19.856z"/>
			</g>
		</g>
		<g>
			<g>
				<path class="st4" d="M53.743,27.206v5.347h-2.505V18.136h5.516c1.611,0,2.89,0.42,3.837,1.259
					c0.947,0.839,1.421,1.95,1.421,3.331c0,1.415-0.464,2.515-1.391,3.301c-0.928,0.787-2.226,1.18-3.896,1.18H53.743z
					 M53.743,25.186h3.01c0.891,0,1.571-0.209,2.04-0.629c0.468-0.419,0.703-1.025,0.703-1.817c0-0.779-0.238-1.401-0.713-1.867
					c-0.475-0.466-1.129-0.705-1.961-0.718h-3.08V25.186z"/>
				<path class="st4" d="M66.541,23.008c0.786-0.911,1.779-1.367,2.981-1.367c2.284,0,3.443,1.304,3.476,3.912v7.001h-2.406v-6.912
					c0-0.739-0.16-1.263-0.48-1.57c-0.32-0.307-0.791-0.461-1.411-0.461c-0.964,0-1.684,0.429-2.159,1.287v7.654h-2.406v-15.21
					h2.406V23.008z"/>
				<path class="st4" d="M75.181,27.097c0-1.05,0.208-1.995,0.624-2.837c0.416-0.842,1-1.489,1.753-1.941
					c0.753-0.452,1.617-0.679,2.594-0.679c1.446,0,2.619,0.466,3.52,1.396c0.901,0.931,1.388,2.165,1.461,3.703l0.01,0.565
					c0,1.056-0.203,2-0.609,2.832s-0.987,1.476-1.743,1.931c-0.756,0.456-1.629,0.683-2.619,0.683c-1.512,0-2.722-0.503-3.629-1.51
					c-0.908-1.006-1.362-2.348-1.362-4.025V27.097z M77.587,27.305c0,1.103,0.228,1.966,0.683,2.59
					c0.456,0.624,1.089,0.935,1.901,0.935c0.812,0,1.444-0.317,1.896-0.951c0.452-0.634,0.678-1.561,0.678-2.783
					c0-1.083-0.232-1.941-0.698-2.575c-0.466-0.634-1.098-0.951-1.896-0.951c-0.786,0-1.41,0.312-1.872,0.936
					S77.587,26.064,77.587,27.305z"/>
				<path class="st4" d="M89.613,21.839l0.069,1.238c0.792-0.957,1.832-1.436,3.119-1.436c2.231,0,3.367,1.278,3.407,3.832v7.08
					h-2.406v-6.941c0-0.68-0.147-1.183-0.441-1.51c-0.294-0.327-0.774-0.49-1.441-0.49c-0.97,0-1.693,0.439-2.169,1.317v7.625
					h-2.406V21.839H89.613z"/>
				<path class="st4" d="M103.58,32.751c-1.525,0-2.761-0.48-3.708-1.441c-0.947-0.96-1.421-2.239-1.421-3.837v-0.297
					c0-1.069,0.206-2.025,0.619-2.867c0.412-0.842,0.992-1.497,1.738-1.966c0.746-0.469,1.578-0.703,2.495-0.703
					c1.459,0,2.586,0.466,3.382,1.396s1.193,2.248,1.193,3.951v0.97h-7.001c0.073,0.885,0.368,1.584,0.886,2.099
					c0.518,0.515,1.17,0.772,1.956,0.772c1.102,0,2-0.445,2.693-1.337l1.297,1.238c-0.429,0.641-1.002,1.137-1.718,1.49
					C105.275,32.575,104.471,32.751,103.58,32.751z M103.293,23.572c-0.66,0-1.193,0.231-1.599,0.693
					c-0.406,0.462-0.665,1.106-0.777,1.931h4.585v-0.178c-0.053-0.805-0.267-1.414-0.643-1.827
					C104.481,23.778,103.959,23.572,103.293,23.572z"/>
				<path class="st4" d="M112.685,27.206v5.347h-2.505V18.136h5.516c1.611,0,2.89,0.42,3.837,1.259
					c0.947,0.839,1.421,1.95,1.421,3.331c0,1.415-0.464,2.515-1.391,3.301c-0.928,0.787-2.226,1.18-3.896,1.18H112.685z
					 M112.685,25.186h3.01c0.891,0,1.571-0.209,2.04-0.629c0.468-0.419,0.703-1.025,0.703-1.817c0-0.779-0.238-1.401-0.713-1.867
					c-0.475-0.466-1.129-0.705-1.961-0.718h-3.08V25.186z"/>
				<path class="st4" d="M127.701,32.751c-1.525,0-2.761-0.48-3.708-1.441c-0.947-0.96-1.421-2.239-1.421-3.837v-0.297
					c0-1.069,0.206-2.025,0.619-2.867c0.412-0.842,0.992-1.497,1.738-1.966c0.746-0.469,1.578-0.703,2.495-0.703
					c1.459,0,2.586,0.466,3.382,1.396c0.796,0.931,1.193,2.248,1.193,3.951v0.97h-7.001c0.073,0.885,0.368,1.584,0.886,2.099
					c0.518,0.515,1.17,0.772,1.956,0.772c1.102,0,2-0.445,2.693-1.337l1.297,1.238c-0.429,0.641-1.002,1.137-1.718,1.49
					C129.396,32.575,128.592,32.751,127.701,32.751z M127.414,23.572c-0.66,0-1.193,0.231-1.599,0.693
					c-0.406,0.462-0.665,1.106-0.777,1.931h4.585v-0.178c-0.053-0.805-0.267-1.414-0.643-1.827
					C128.602,23.778,128.081,23.572,127.414,23.572z"/>
			</g>
		</g>
	</g>
</g>
</svg>
