<?xml version="1.0" encoding="UTF-8"?>
<!DOCTYPE svg PUBLIC "-//W3C//DTD SVG 1.1//EN" "http://www.w3.org/Graphics/SVG/1.1/DTD/svg11.dtd">
<svg version="1.1" xmlns="http://www.w3.org/2000/svg" xmlns:xlink="http://www.w3.org/1999/xlink" x="0" y="0" width="1453" height="960" viewBox="0, 0, 1453, 960">
  <defs>
    <clipPath id="Clip_1">
      <path d="M0,0.36 L1452.33,0.36 L1452.33,959.94 L0,959.94 z"/>
    </clipPath>
    <clipPath id="Clip_2">
      <path d="M0,0.36 L1452.33,0.36 L1452.33,959.94 L0,959.94 z"/>
    </clipPath>
  </defs>
  <g id="Layer_1">
    <g clip-path="url(#Clip_1)">
      <path d="M497.546,18.392 L572.542,55.89 L638.539,114.387 L700.036,225.381 L727.035,312.377 L734.534,384.373 L722.535,453.37 L649.039,544.865 L641.539,589.863 L662.538,676.859 L596.541,774.354 L541.044,774.354 L497.546,18.392" fill="#FEFEFE"/>
      <path d="M994.024,948.565 C992.796,952.489 991.91,956.629 986.479,956.829 C981.575,957.009 978.623,954.821 977.786,949.252 C975.809,936.097 974.029,922.913 972.276,909.726 C967.478,873.625 962.734,837.517 957.964,801.382 C956.033,801.248 954.966,802.719 953.662,803.628 C917.591,828.779 880.312,851.713 838.846,867.139 C806.986,878.991 774.145,887.15 740.845,893.608 C736.955,894.363 733.919,895.8 731.081,898.745 C721.497,908.692 710.086,916.046 697.189,921.045 C695.173,921.826 693.465,922.632 692.246,924.785 C686.703,934.577 678.225,939.102 667.061,936.182 C649.908,931.695 632.685,927.138 616.281,920.246 C608.853,917.126 603.392,911.691 598.29,905.122 C594.075,899.695 587.949,894.467 579.322,895.658 C564.004,897.773 548.65,899.658 533.283,901.382 C530.32,901.715 529.444,902.606 529.288,905.547 C528.533,919.838 527.092,934.073 525.277,948.27 C524.541,954.02 522.129,956.665 517.42,956.803 C512.612,956.943 510.3,954.761 509.011,948.868 C507.772,947.069 508.014,945.099 508.258,943.089 C509.563,932.358 510.394,921.579 511.414,910.82 C511.881,905.893 510.88,905.004 505.806,905.461 C495.873,906.355 485.951,907.328 475.949,907.215 C469.827,907.146 468.886,907.88 468.311,913.852 C467.594,921.29 466.772,928.732 466.7,936.227 C466.658,940.549 466.513,944.889 464.444,948.865 C463.759,953.464 461.638,956.681 456.52,956.79 C451.172,956.904 448.834,953.675 448.018,948.868 C446.505,946.616 446.7,944.059 446.961,941.599 C447.98,931.998 448.15,922.335 449.11,912.742 C449.53,908.546 447.806,907.369 444.239,907.144 C440.42,906.903 436.601,906.999 432.774,906.535 C413.947,904.253 398.221,894.75 382.746,884.907 C354.596,867.002 328.143,846.74 302.205,825.798 C300.391,824.334 298.583,822.838 297.039,821.088 C293.596,817.186 293.327,812.456 296.243,808.76 C298.932,805.353 303.613,804.529 308.025,806.731 C309.82,807.627 311.417,808.833 312.974,810.096 C340.161,832.146 367.886,853.477 397.695,871.914 C409.886,879.454 422.252,886.838 437.125,887.899 C438.118,887.97 439.103,888.202 440.104,888.215 C464.915,888.538 489.682,888.215 514.417,885.644 C535.45,883.458 556.462,881.156 577.425,878.392 C584.626,877.442 585.861,876.482 585.703,869.285 C585.389,854.948 587.31,840.689 586.834,826.36 C586.773,824.53 586.799,822.695 586.971,820.867 C587.566,814.544 587.545,814.351 580.959,815.068 C550.966,818.333 520.881,819.885 490.736,818.931 C471.918,818.336 453.181,816.474 435.308,809.697 C428.339,807.055 422.289,802.978 416.612,798.324 C401.644,786.052 388.183,772.242 374.963,758.115 C356.518,738.405 338.953,717.951 321.505,697.379 C319.457,694.964 317.383,692.56 315.61,689.941 C312.197,684.896 312.61,679.638 316.535,676.455 C320.421,673.303 326.044,673.752 329.965,678.203 C336.326,685.424 342.63,692.711 347.402,698.844 C341.433,687.434 334.771,674.3 328.511,660.989 C325.94,655.521 322.46,653.027 316.543,652.171 C301.685,650.021 287.148,646.318 272.904,641.523 C267.483,639.698 267.398,639.885 266.639,645.256 C261.49,681.691 261.519,718.396 262.929,754.959 C264.896,805.947 272.155,856.394 283.549,906.192 C286.262,918.049 289.059,929.882 292.391,941.582 C293.229,944.526 293.683,947.426 292.5,950.373 C291.493,954.694 288.833,956.885 284.334,956.81 C279.669,956.732 277.592,953.767 276.48,949.793 C268.505,921.298 262.257,892.42 257.231,863.265 C253.359,840.809 250.575,818.212 248.094,795.571 C246.91,793.523 246.149,791.347 246.005,788.964 C244.42,762.559 242.137,736.15 243.054,709.689 C243.878,685.93 244.866,662.13 248.482,638.572 C249.159,634.166 247.818,631.895 243.793,630.053 C223.978,620.984 206.057,609.055 189.653,594.63 C169.319,576.748 153.76,555.322 141.421,531.48 C132.591,514.418 125.913,496.442 121.466,477.721 C120.414,473.292 118.889,470.994 113.681,470.726 C104.336,470.245 95.192,468.172 87.185,462.78 C75.472,454.892 69.955,443.305 67.431,429.884 C65.142,417.71 65.882,405.696 69.134,393.798 C73.29,378.593 85.624,366.559 103.972,367.393 C104.471,367.416 104.99,367.485 105.469,367.385 C107.925,366.875 111.351,369.201 112.739,366.073 C114.252,362.664 115.15,358.854 113.346,354.975 C109.087,345.817 111.643,340.672 121.709,339.025 C153.312,333.855 183.608,324.329 212.882,311.576 C247.637,296.434 279.381,276.505 307.647,251.074 C338.022,223.745 361.396,191.222 380.081,155.112 C386.669,142.379 392.748,129.411 398.064,116.092 C398.806,114.235 399.551,112.372 400.931,110.861 C403.293,108.273 406.038,106.463 409.718,107.254 C413.461,108.059 416.343,110.459 416.845,114.131 C417.41,118.26 419.638,119.024 423.124,119.594 C463.463,126.194 500.969,140.12 534.848,163.266 C542.28,168.344 549.378,173.873 556.274,179.653 C561.456,185.516 568.256,189.695 573.191,195.828 C581.212,204.743 589.087,213.751 596.064,223.546 C616.823,252.688 630.73,284.933 639.958,319.337 C643.716,333.349 646.71,347.522 648.743,361.892 C649.15,364.77 649.746,367.47 653.128,368.463 C669.053,373.138 676.042,385.115 678.951,400.336 C681.604,414.214 680.668,427.853 675.892,441.174 C671.283,454.028 662.748,463.154 649.627,467.304 C644.87,468.81 642.748,471.391 641.583,476.153 C632.206,514.487 615.476,549.171 589.134,578.817 C572.372,597.682 552.504,612.714 530.265,624.611 C520.407,629.885 510.219,634.456 499.7,638.222 C495.847,639.601 495.362,641.324 497.19,644.869 C514.382,678.198 522.66,714.097 527.679,750.952 C529.251,762.497 530.17,774.086 531.109,785.682 C531.796,789.148 531.441,792.66 531.54,796.151 C531.617,798.862 532.729,799.894 535.594,799.758 C554.719,798.845 573.715,796.148 592.779,795.101 C604.147,794.476 612.997,789.092 622.574,784.899 C635.187,779.377 647.81,776.655 661.383,780.597 C667.399,782.345 672.406,785.243 675.489,790.897 C676.47,792.696 677.729,794.195 679.74,794.924 C687.095,797.592 694.134,801.118 701.77,803.03 C703.56,803.479 705.256,803.945 707.12,803.161 C731.395,792.959 756.607,785.254 781.031,775.453 C805.45,765.654 830.193,756.557 852.449,742.096 C868.699,731.538 883.661,719.394 898.117,706.512 C915.849,690.711 931.724,673.264 946.148,654.458 C953.078,645.422 953,645.292 942.629,641.301 C918.538,632.031 895.943,620.173 875.746,603.878 C855.24,587.333 838.973,567.312 825.755,544.662 C815.279,526.712 807.584,507.588 801.871,487.655 C800.969,484.505 799.37,483.01 796.215,482.283 C772.331,476.786 760.494,462.939 757.719,438.712 C756.775,430.475 757.052,422.423 758.163,414.353 C758.677,410.614 757.919,407.571 756.039,404.426 C750.741,395.566 745.479,386.668 742.25,377.219 C742.13,376.124 741.366,376.573 742.017,376.431 C742.045,376.424 742.091,376.543 742.107,376.789 C742.949,390.002 740.945,402.998 739.182,416.02 C734.805,448.344 720.388,475.733 698.669,499.706 C688.166,511.299 677.561,522.831 668.255,535.461 C658.53,548.659 652.16,563.258 651.746,579.723 C651.431,592.241 653.962,604.598 657.468,616.622 C662.051,632.341 665.996,648.197 666.415,664.615 C667.02,688.303 660.518,709.982 646.896,729.515 C634.727,746.965 621.19,763.105 604.133,776.042 C602.271,777.454 600.413,778.865 598.409,780.06 C593.296,783.109 587.562,782.17 584.625,777.855 C581.672,773.516 582.659,768.452 587.739,764.857 C603.712,753.553 616.592,739.312 628.132,723.649 C639.587,708.102 647.056,691.109 647.725,671.635 C648.145,659.431 646.608,647.324 643.188,635.593 C638.47,619.403 634.235,603.108 633.195,586.235 C632.323,572.068 635.094,558.436 640.867,545.392 C648.275,528.655 660.034,515.059 671.973,501.569 C682.349,489.846 692.904,478.271 701.75,465.294 C713.909,447.458 718.925,427.17 721.782,406.205 C723.582,392.995 724.516,379.685 723.778,366.354 C722.437,342.142 717.842,318.482 711.405,295.124 C700.655,256.121 686.503,218.46 667.662,182.616 C652.251,153.299 633.993,125.993 611.666,101.38 C594.505,82.463 575.132,66.395 553.391,53.141 C537.378,43.379 520.163,36.248 502.277,30.702 C499.901,29.716 497.421,29.091 494.907,28.568 C476.68,23.726 458.229,20.401 439.382,18.95 C429.386,18.18 419.42,18.006 409.444,18.169 C382.974,18.601 357.071,22.727 331.884,30.986 C328.62,32.056 325.346,32.153 322.019,32.105 C303.996,31.843 286.083,33.077 268.337,36.26 C247.38,40.019 227.449,46.989 208.159,55.894 C183.7,67.184 160.668,80.707 140.014,98.193 C116.901,117.76 97.885,140.753 81.999,166.389 C61.136,200.057 46.588,236.483 35.491,274.381 C29.308,295.497 23.369,316.684 20.256,338.508 C15.353,372.88 16.173,406.933 27.054,440.269 C32.267,456.241 41.713,469.692 52.411,482.385 C62.821,494.736 73.956,506.461 83.992,519.135 C95.77,534.009 104.658,550.25 107.032,569.363 C108.879,584.233 107.301,598.93 103.751,613.461 C101.457,622.85 98.555,632.084 96.505,641.526 C92.032,662.123 91.465,682.657 100.314,702.288 C106.575,716.178 115.807,728.263 125.748,739.806 C133.956,749.338 143.403,757.4 153.403,764.936 C158.997,769.151 159.5,773.437 155.484,777.846 C151.953,781.42 147.831,782.171 143.784,779.244 C115.241,758.605 92.647,732.901 80.779,699.416 C72.949,677.326 74.925,654.45 80.858,631.976 C84.124,619.603 87.594,607.306 89.488,594.59 C92.817,572.244 87.095,552.467 73.791,534.508 C63.858,521.098 52.555,508.857 41.327,496.591 C16.454,469.418 4.51,437.08 1.087,400.896 C-2.526,362.693 3.208,325.649 13.218,288.93 C25.503,243.869 41.046,200.181 65.383,160.032 C111.318,84.257 178.566,38.532 264.425,19.243 C277.108,16.394 290.12,15.023 303.092,15.087 C317.176,15.156 330.621,12.748 344.288,9.467 C413.29,-7.096 480.469,-1.332 544.891,28.935 C580.74,45.778 609.959,71.418 635.153,101.702 C672.135,146.155 697.196,197.103 716.06,251.368 C721.184,266.106 725.589,281.072 730.366,296.177 C731.134,289.724 731.717,283.243 732.699,276.822 C739.076,235.146 754.453,196.779 776.149,160.879 C808.544,107.278 851.274,64.415 907.824,36.362 C945.509,17.667 985.532,8.487 1027.59,7.534 C1066.92,6.644 1105.03,13.3 1142.75,23.834 C1153.21,26.757 1164.33,27.385 1174.93,30.299 C1223.04,43.535 1264.18,68.813 1299.87,103.196 C1352.01,153.432 1381.88,215.432 1394.64,286.065 C1399.41,312.438 1399.43,339.078 1395.36,365.621 C1394.84,368.993 1395.78,371.117 1398.12,373.427 C1423.1,398.07 1440.31,427.177 1448.13,461.566 C1459.62,512.125 1447.25,556.641 1414.33,596.131 C1398.97,614.548 1382.23,631.776 1367.5,650.716 C1352.24,670.328 1339.66,691.315 1334.63,716.069 C1330.59,735.968 1330.73,756.081 1331.76,776.231 C1331.92,779.39 1332.07,782.552 1332.09,785.713 C1332.13,791.556 1329.09,795.118 1324.19,795.114 C1319.41,795.111 1316.42,791.823 1316.11,786.233 C1316.07,785.403 1316.04,784.571 1316,783.741 C1314.35,780.544 1313.9,777.009 1313.84,773.553 C1313.5,755.57 1313.26,737.586 1316.13,719.725 C1319.6,698.156 1327.71,678.427 1339.46,660.119 C1341.35,657.175 1343.35,654.299 1345.05,651.244 C1346.49,649.477 1348.32,648.025 1349.39,645.954 C1360.65,630.435 1373.7,616.436 1386.36,602.099 C1401.37,585.097 1415.88,567.715 1425.08,546.668 C1437.33,518.628 1437.47,489.807 1430.15,460.619 C1423.86,435.557 1411.28,413.856 1394.33,394.542 C1391.51,391.326 1391.16,391.35 1389.72,395.469 C1388.25,399.713 1386.85,403.986 1385.17,408.158 C1379.85,419.579 1374.84,430.893 1374.03,443.948 C1373.44,453.652 1368.8,462.3 1361.74,469.564 C1353.74,477.795 1343.89,481.394 1332.92,482.977 C1324.32,484.217 1317.7,487.973 1314.88,496.952 C1306.13,524.891 1292.81,550.441 1274.34,573.216 C1266.78,582.535 1258.71,591.385 1249.36,598.975 C1245.61,602.014 1242.81,605.204 1243.38,610.715 C1244.99,626.25 1245.42,641.89 1248.35,657.307 C1255.01,692.238 1268.98,723.577 1292.88,750.234 C1296.33,754.074 1299.93,757.773 1303.26,761.708 C1307.29,766.486 1305.71,772.336 1300.1,774.478 C1295.81,776.528 1292.58,774.926 1289.4,771.848 C1257.48,740.899 1239.15,702.921 1231.08,659.594 C1228.39,645.203 1227.04,630.674 1226.52,615.604 C1223.88,616 1222.24,617.719 1220.37,618.844 C1212.11,623.826 1203.66,628.45 1194.86,632.371 C1192.55,633.395 1191.49,634.322 1192.29,637.094 C1203.85,677.639 1211.76,718.898 1215.62,760.883 C1221.59,825.87 1219.16,890.14 1198.35,952.741 C1197.19,956.229 1195.85,959.276 1191.59,959.648 C1185.18,960.208 1182.34,957.486 1182.23,950.606 C1181.97,944.306 1184.6,938.643 1186.26,932.787 C1192.77,909.795 1196.59,886.366 1198.98,862.597 C1201.24,839.986 1201.43,817.332 1200.56,794.744 C1199.12,757.258 1193.99,720.143 1185.89,683.481 C1183.27,671.608 1180.66,659.729 1177.32,648.026 C1175.67,642.219 1175.35,641.912 1169.82,643.744 C1160.95,646.685 1151.93,649.055 1142.83,651.092 C1138.56,652.047 1136.37,654.125 1135.27,658.45 C1127.51,688.914 1116.66,718.243 1101.92,746.048 C1094.18,760.634 1085.57,774.694 1075.17,787.58 C1073.49,789.661 1071.78,791.724 1069.52,793.187 C1065.03,796.08 1060.25,794.834 1056.13,789.524 C1046.52,777.117 1038.1,763.933 1030.83,750.018 C1016.11,721.866 1004.66,692.4 995.78,661.941 C994.236,656.645 991.875,653.489 986.056,653.274 C982.92,653.158 979.845,652.083 976.79,651.269 C973.202,650.313 970.844,651.466 968.815,654.56 C955.508,674.853 939.651,693.094 922.233,709.861 C896.946,734.201 869.776,756.233 837.968,771.682 C813.073,783.773 787.132,793.418 761.168,802.948 C750.535,806.851 739.869,810.664 729.192,814.443 C725.61,815.711 724.756,817.555 725.664,821.215 C729.755,837.705 733.593,854.257 737.396,870.817 C738.572,875.939 738.988,876.19 744.275,875.128 C791.514,865.642 837.469,852.379 880.099,829.211 C904.594,815.9 927.619,800.31 950.513,784.493 C953.876,782.169 953.908,779.166 953.459,775.691 C951.37,759.509 949.181,743.338 947.581,727.099 C946.978,720.973 949.479,716.849 954.144,715.713 C960.376,714.196 965.535,717.917 966.323,724.882 C967.951,739.273 969.714,753.646 971.479,768.02 C975.131,797.765 979.033,827.478 982.944,857.191 C986.703,885.749 990.61,914.286 994.449,942.833 C994.701,944.706 995.621,946.77 994.024,948.565" fill="#6E4100"/>
    </g>
    <path d="M155.484,777.846 C157.847,771.401 157.053,769.081 151.588,765.159 C129.512,749.315 112.369,729.026 100.136,704.967 C89.272,683.598 90.272,660.825 95.866,638.151 C99.131,624.915 103.098,611.859 105.223,598.348 C109.925,568.462 101.555,542.341 82.432,519.413 C71.125,505.856 59.574,492.5 47.967,479.199 C28.404,456.779 20.423,429.874 17.241,401.038 C12.963,362.269 19.76,324.814 30.189,287.697 C42.571,243.627 58.319,201.035 83.004,162.153 C125.016,95.977 185.213,55.476 260.553,36.473 C277.734,32.14 295.373,30.804 313.054,30.843 C322.249,30.863 330.986,29.69 339.947,27.161 C391.628,12.574 443.45,13.155 495.185,27.287 C496.963,29.148 499.63,28.883 501.715,30.014 C519.229,36.563 534.536,46.882 548.991,58.423 C579.256,82.585 603.121,112.273 623.007,145.336 C625.382,149.284 625.446,152.502 622.763,156.299 C611.296,172.529 595.411,180.762 575.894,181.862 C569.197,182.239 562.262,183.255 555.637,180.74 C530.002,159.18 501.297,143.084 469.549,132.422 C453.592,127.063 437.324,122.971 420.645,120.578 C417.927,120.188 415.497,120.133 415.981,115.804 C416.395,112.09 413.787,109.272 409.799,108.499 C405.368,107.64 402.315,109.636 400.579,113.558 C397.684,120.098 395.101,126.777 392.18,133.304 C374.494,172.831 351.749,209.032 321.266,240.035 C296.656,265.064 268.414,285.249 237.322,301.395 C200.307,320.618 161.237,333.866 120.041,340.695 C112.892,341.88 110.23,348.206 114.404,353.995 C115.772,355.893 115.444,367.517 114.014,369.139 C113.312,369.935 112.487,369.611 111.726,369.468 C87.664,364.922 72.285,378.204 68.688,401.736 C67.042,412.503 67.07,423.329 69.696,433.976 C75.178,456.208 90.784,468.825 113.901,469.131 C119.19,469.201 121.097,470.562 122.395,475.799 C132.973,518.487 152.319,556.479 183.988,587.563 C202.11,605.351 222.952,619.256 246.105,629.626 C249.547,631.168 250.809,632.806 250.245,636.656 C245.505,669.027 244.219,701.619 244.698,734.285 C244.998,754.752 246.384,775.176 248.094,795.572 C236.451,793.945 224.783,792.474 213.17,790.658 C193.677,787.608 174.358,783.712 155.484,777.846" fill="#FFE26E"/>
    <path d="M994.024,948.565 C991.724,932.109 989.373,915.661 987.135,899.197 C983.867,875.157 980.601,851.117 977.484,827.057 C974.58,804.643 971.847,782.206 969.091,759.773 C967.653,748.061 966.387,736.329 964.928,724.62 C964.217,718.917 960.617,715.989 955.49,716.615 C950.789,717.189 948.284,720.909 948.957,726.508 C950.958,743.173 952.955,759.839 955.061,776.491 C955.58,780.593 954.822,783.329 950.941,785.995 C923.069,805.148 895.011,823.932 864.464,838.706 C830.548,855.109 794.707,865.555 758.075,873.632 C752.56,874.848 746.976,875.785 741.515,877.2 C738.521,877.976 737.467,877.222 736.783,874.237 C732.518,855.612 728.161,837.006 723.582,818.455 C722.695,814.861 724.902,814.6 727.044,813.809 C748.729,805.799 770.442,797.865 792.095,789.77 C828.142,776.294 862.39,759.604 892.221,734.711 C921.255,710.483 947.772,683.996 968.656,652.266 C970.316,649.743 971.633,648.392 974.981,649.48 C979.224,650.858 983.693,652.069 988.11,652.248 C993.548,652.468 995.123,655.282 996.521,659.951 C1007.44,696.391 1021.04,731.734 1040.63,764.524 C1045.41,772.531 1050.64,780.242 1056.35,787.632 C1062.39,795.445 1067.17,795.521 1073.4,787.711 C1084.55,773.736 1093.89,758.589 1102.09,742.738 C1116.23,715.431 1126.81,686.772 1134.16,656.936 C1135.15,652.924 1136.82,650.892 1141.11,650.054 C1151.55,648.019 1161.86,645.235 1171.83,641.497 C1175.74,640.028 1177.02,641.104 1178.01,644.807 C1185,670.999 1190.8,697.447 1194.96,724.23 C1200.58,760.31 1203.18,796.615 1202.2,833.136 C1201.18,871.397 1195.64,908.944 1183.95,945.482 C1183.4,947.2 1182.8,948.9 1182.23,950.607 C1181.38,948.067 1179.22,949.024 1177.58,949.013 C1161.85,948.912 1146.11,948.902 1130.37,948.866 C1128.93,946.914 1130.03,945.006 1130.59,943.172 C1138.69,916.586 1142.19,889.207 1144.68,861.657 C1147.02,835.817 1148.55,809.932 1148.64,783.976 C1148.65,781.649 1148.84,779.281 1148.1,777.035 C1147.14,774.115 1145.3,772.007 1141.99,772.099 C1138.96,772.182 1137.21,774.154 1136.23,776.864 C1135.83,777.968 1135.64,779.14 1135.69,780.302 C1136.2,792.13 1135.02,803.917 1134.48,815.697 C1132.68,854.767 1130,893.775 1120.13,931.87 C1118.79,937.035 1117.2,942.115 1115.15,947.039 C1114.55,948.469 1114.45,950.44 1112.24,950.61 C1111.22,947.867 1108.85,949.029 1107.08,949.026 C1071.37,948.957 1035.66,948.98 999.951,948.957 C997.975,948.955 996,948.701 994.024,948.565" fill="#9A9A9A"/>
    <path d="M292.5,950.373 C291.68,940.686 288.061,931.656 285.81,922.31 C275.467,879.374 268.216,835.956 264.032,791.986 C260.807,758.101 260.184,724.172 261.354,690.199 C261.899,674.396 263.599,658.661 265.332,642.939 C265.796,638.729 266.921,638.017 271.133,639.485 C287.651,645.241 304.667,649.139 321.981,651.669 C324.048,651.971 325.755,652.369 326.817,654.507 C334.889,670.743 343.047,686.936 351.153,703.154 C351.268,703.386 351.062,703.778 350.862,704.919 C344.169,696.992 337.819,689.477 331.476,681.955 C330.618,680.938 329.85,679.839 328.947,678.864 C325.538,675.18 320.841,674.554 317.369,677.274 C313.723,680.13 313.299,685.068 316.722,689.27 C323.243,697.276 329.882,705.189 336.605,713.026 C357.865,737.809 379.417,762.333 403.193,784.773 C415.832,796.701 428.867,807.909 446.633,811.948 C463.297,815.736 480.137,817.301 497.132,817.633 C526.644,818.21 556.044,816.402 585.351,813.008 C587.635,812.743 589.215,812.543 589.082,815.697 C588.264,834.985 587.397,854.274 586.932,873.571 C586.824,878.044 584.826,879.04 581.106,879.47 C561.434,881.742 541.807,884.446 522.107,886.42 C499.246,888.709 476.325,890.013 453.312,890.199 C434.607,890.35 417.678,885.983 401.669,876.13 C370.811,857.137 342.113,835.248 313.876,812.678 C312.445,811.534 311.053,810.34 309.6,809.225 C305.003,805.699 300.084,805.794 297.186,809.433 C294.133,813.266 294.868,817.964 299.438,821.594 C312.478,831.952 325.455,842.4 338.741,852.436 C358.01,866.992 377.717,880.924 398.74,892.919 C412.895,900.995 427.82,905.886 444.269,905.862 C451.233,905.852 451.106,906.118 450.563,913.015 C449.622,924.958 448.857,936.915 448.018,948.867 C398.006,948.864 347.993,948.862 297.981,948.849 C295.999,948.848 293.971,948.58 292.5,950.373" fill="#94D1CC"/>
    <g clip-path="url(#Clip_2)">
      <path d="M1300.1,774.478 C1305.57,770.133 1305.9,765.698 1300.87,760.744 C1268.15,728.481 1250.64,689.002 1244.91,643.792 C1243.36,631.563 1242.92,619.293 1242.2,607.023 C1242.07,604.695 1242.7,603.048 1244.61,601.458 C1279,572.764 1301.31,536.183 1314.62,493.765 C1316.07,489.135 1325.48,481.982 1330.33,481.703 C1353.15,480.391 1368.78,466.609 1373.04,444.064 C1373.35,442.431 1374.06,440.748 1373.87,439.168 C1372.47,426.966 1380.12,417.813 1384.34,407.509 C1387.14,407.593 1388.19,409.927 1389.51,411.745 C1399.88,426.046 1405.55,442.349 1409.28,459.387 C1416.23,491.17 1411.93,521.914 1400.45,551.987 C1390.41,578.282 1376.03,602.275 1361.38,626.124 C1357.46,632.504 1354.21,639.273 1349.97,645.456 C1348.7,647.31 1347.83,649.452 1346.11,650.999 C1346.77,652.72 1345.59,653.78 1344.73,654.991 C1327.74,678.99 1317.82,705.443 1315.91,734.969 C1314.85,751.264 1315.23,767.486 1316,783.741 C1310.28,781.375 1306.14,776.295 1300.1,774.478" fill="#C6986A"/>
      <path d="M1112.24,950.61 C1121.61,927.452 1125.29,903.033 1128.21,878.448 C1132.14,845.412 1133.65,812.232 1134.15,778.99 C1134.23,773.742 1137.73,770.011 1142.25,770.087 C1146.77,770.163 1150.12,773.883 1150.11,779.216 C1150.07,805.987 1148.63,832.688 1146.31,859.359 C1144.16,884.037 1141.17,908.564 1135.08,932.622 C1133.7,938.084 1131.95,943.454 1130.37,948.866 C1129.63,950.521 1128.87,952.171 1128.15,953.833 C1125.86,959.088 1122.67,960.995 1117.57,959.514 C1113.3,958.271 1111.78,954.923 1112.24,950.61" fill="#6E4100"/>
    </g>
    <path d="M464.444,948.865 C465.327,935.604 466.306,922.348 467.026,909.078 C467.211,905.667 469.548,906.02 471.504,905.899 C479.797,905.389 488.102,905.096 496.399,904.639 C500.713,904.401 505.041,904.167 509.319,903.598 C512.829,903.131 513.551,904.49 513.258,907.707 C512.003,921.444 510.953,935.2 509.01,948.867 C494.155,948.867 479.3,948.866 464.444,948.865" fill="#94D1CC"/>
    <path d="M622.242,480.719 C615.02,507.883 603.002,532.743 585.968,555.084 C555.714,594.763 515.136,618.503 467.234,629.968 C404.479,644.989 341.684,644.531 279.891,625.372 C207.498,602.927 161.697,553.697 140.402,481.371 C130.532,447.846 127.241,413.5 129.44,378.657 C129.89,371.536 131.48,364.494 132.213,357.382 C132.549,354.127 134.964,354.384 136.858,354.001 C164.495,348.412 191.171,339.746 217.092,328.764 C259.674,310.723 297.936,286.028 330.732,253.304 C363.281,220.826 387.798,182.804 406.291,140.858 C408.401,136.072 410.752,135.076 415.572,135.829 C468.734,144.126 516.087,164.655 555.124,202.365 C582.29,228.608 601.413,260.177 614.127,295.589 C626.569,330.244 634.645,365.811 633.965,402.912 C633.82,410.867 633.779,418.876 632.276,426.756 C629.889,427.387 628.591,425.518 627.152,424.315 C616.101,415.069 603.096,410.387 589.011,410.305 C566.945,410.178 547.861,419.241 538.525,442.263 C534.835,451.362 539.043,462.436 548.019,470.716 C566.242,487.53 587.43,487.849 609.77,482.55 C612.676,481.861 615.503,480.842 618.351,479.921 C619.641,479.505 621.403,478.302 622.242,480.719" fill="#FEFAEE"/>
    <path d="M1255.03,298.78 C1259.99,302.448 1264.28,302.463 1267.38,298.823 C1270.43,295.238 1269.85,290.9 1265.5,286.523 C1244.9,265.815 1237.34,234.3 1239.67,211.238 C1250.27,222.236 1259.32,234.04 1267.33,246.66 C1287.65,278.674 1299.58,313.843 1307.23,350.775 C1314.3,384.872 1313.41,418.878 1307.95,452.987 C1307.84,453.621 1307.49,454.214 1307.25,454.827 C1304.43,454.648 1304.7,452.132 1304.18,450.452 C1300.62,439.005 1295.45,428.424 1287.13,419.694 C1274.57,406.509 1259.07,401.38 1241.25,404.877 C1210.53,410.907 1189.35,444.231 1192.65,472.775 C1194.53,489.039 1203.49,501.39 1217.71,509.282 C1229.84,516.016 1243.11,519.389 1257.12,518.247 C1271.84,517.047 1282.85,509.051 1292.13,498.157 C1293.46,496.602 1294.34,494.234 1297.11,494.685 C1289.13,520.235 1276.48,543.258 1259.42,563.835 C1229.98,599.358 1191.88,621.033 1147.59,631.906 C1082.54,647.877 1017.58,647.385 953.623,626.539 C896.733,607.995 855.544,571.114 830.766,516.357 C830.091,514.864 829.644,513.268 829.09,511.72 C833.465,511.105 837.049,513.635 840.937,514.834 C850.277,517.714 859.708,519.309 869.466,517.967 C882.541,516.168 892.611,509.149 901.02,499.417 C909.114,490.049 915.143,479.681 916.272,467.007 C916.954,459.347 914.964,452.159 912.388,445.106 C907.232,430.984 899.26,418.751 886.201,410.881 C866.209,398.832 841.677,402.495 823.735,419.503 C819.728,423.301 816.238,427.507 813.146,432.076 C812.181,433.503 811.692,435.572 809.383,435.627 C802.037,379.316 813.48,326.069 836.766,275.12 C859.086,226.285 894.466,189.427 942.307,164.759 C947.174,162.25 952.198,160.045 957.166,157.732 C958.206,157.248 959.317,156.914 960.96,156.299 C960.631,159.541 960.354,162.386 960.051,165.229 C956.279,200.632 966.798,231.815 987.847,259.958 C998.257,273.878 1010.16,286.384 1023.09,297.936 C1028.58,302.834 1031.18,302.918 1037.1,298.668 C1039.61,297.581 1042.01,298.931 1044.46,299.006 C1066.58,299.683 1088.56,302.959 1110.76,302.227 C1118.62,301.968 1126.18,299.563 1134.01,299.186 C1134.33,299.144 1134.74,298.998 1134.96,299.154 C1141.08,303.493 1146.7,302.399 1152.02,297.649 C1155.56,297.472 1158.97,298.296 1162.36,299.111 C1178.96,303.097 1195.64,305.656 1212.79,303.43 C1219.21,302.597 1225.73,303.458 1232.23,302.638 C1238.53,301.843 1244.76,301.029 1250.74,298.792 C1252.11,298.277 1253.6,297.816 1255.03,298.78" fill="#FEF8EA"/>
    <path d="M1135.15,299.723 C1126.52,302.047 1117.73,303.7 1108.8,303.797 C1086.07,304.044 1063.48,301.555 1040.86,299.788 C1039.58,299.688 1038.35,299.053 1037.1,298.667 C1039.3,293.584 1038.18,289.625 1033.89,285.887 C1015.7,270.039 999.936,252.137 988.426,230.744 C981.24,217.388 976.935,203.287 975.904,188.056 C974.915,173.457 975.494,159.167 981.081,145.461 C983.502,139.523 986.966,134.408 992.866,131.113 C997.794,128.36 999.037,123.879 996.694,119.757 C994.297,115.54 989.341,114.44 984.539,117.266 C977.944,121.147 972.767,126.515 969.113,133.214 C967.817,135.591 966.143,136.917 963.649,137.844 C925.563,151.99 892.346,173.535 864.907,203.621 C838.586,232.48 820.369,266.052 808.243,303.016 C800.246,327.392 794.733,352.336 792.161,377.889 C791.955,379.934 791.598,381.446 789.159,381.61 C781.144,382.149 774.611,385.883 768.659,391.594 C761.51,379.821 756.326,367.496 752.335,354.633 C753.091,352.632 751.851,350.856 751.697,348.955 C749.298,329.701 751.448,310.718 755.546,291.944 C764.368,251.518 781.617,214.798 805.144,180.915 C808.334,176.32 809.467,175.913 815.298,177.899 C829.314,182.675 843.634,185.172 858.492,184.425 C871.355,183.778 882.991,180.051 893.576,171.007 C888.565,171.664 884.298,172.126 879.987,172.123 C861.704,172.112 848.34,163.495 838.257,148.816 C835.884,145.363 836.097,142.601 838.97,139.504 C854.767,122.473 872.349,107.496 891.136,93.905 C923.635,70.396 958.737,51.952 997.176,40.206 C1018.41,33.718 1040.06,29.564 1062.33,28.183 C1072,27.584 1081.46,28.014 1091,28.882 C1091.7,28.844 1092.41,28.806 1093.11,28.768 C1095.61,30.087 1098.22,30.668 1101.02,29.979 C1117.38,33.722 1133.62,37.899 1149.64,42.927 C1154.6,44.481 1159.93,42.838 1165.23,44.181 C1201.98,53.494 1234.77,70.635 1264.5,93.808 C1294.2,116.96 1319.27,144.356 1338.05,177.14 C1359.15,213.98 1374.23,253.097 1379.87,295.365 C1384.01,326.445 1383.16,357.402 1374.09,387.737 C1372.91,391.671 1371.38,395.5 1369.84,399.867 C1367.71,396.959 1366.13,394.445 1364.2,392.224 C1356.23,383.015 1345.97,379.696 1334.17,381.635 C1329.35,382.428 1327.72,381.219 1327.2,376.324 C1323.04,337.145 1312.82,299.598 1295.57,264.136 C1284.3,240.968 1270.07,219.701 1252.13,201.074 C1249.25,198.087 1246.91,194.59 1243.42,192.177 C1241.2,190.643 1241.96,188.289 1242.26,186.191 C1243.08,180.498 1240.97,176.659 1236.48,175.818 C1231.71,174.925 1227.77,177.383 1226.68,182.767 C1218.96,220.668 1222.38,256.59 1246.19,288.682 C1248.85,292.264 1252.07,295.424 1255.03,298.78 C1243.35,303.738 1230.94,303.862 1218.55,304.889 C1197.3,306.65 1176.55,304.642 1156,299.371 C1154.41,298.963 1152.73,298.901 1151.09,298.678 C1149.69,291.685 1144.24,287.619 1139.79,282.755 C1121.06,262.267 1110.87,237.983 1107.8,210.496 C1105.66,191.433 1106.89,172.627 1111.13,153.97 C1111.39,152.832 1111.62,151.684 1111.59,150.511 C1111.52,146.969 1110.08,144.302 1106.43,143.528 C1102.72,142.744 1100.38,144.613 1099.09,147.984 C1097.41,152.371 1096.66,156.997 1095.94,161.589 C1091.14,191.893 1092.61,221.658 1104.02,250.488 C1110.41,266.611 1119.46,281.054 1131.44,293.643 C1133.08,295.366 1135.58,296.687 1135.15,299.723" fill="#C6986A"/>
    <path d="M571.883,195.935 C596.167,202.892 620.762,203.31 645.489,199.061 C649.915,198.301 650.109,201.342 651.117,203.692 C664.192,234.17 674.291,265.622 682.522,297.748 C690.255,327.929 694.776,358.438 692.978,389.583 C691.276,419.058 686.158,447.758 669.441,473.095 C660.705,486.335 650.184,498.163 640.075,510.317 C633.258,518.512 626.716,526.9 621.008,535.936 C608.13,556.318 605.765,578.433 609.576,601.724 C612.077,617.008 617.377,631.652 619.738,646.945 C622.381,664.063 622.149,681.091 617.208,697.852 C616.699,699.58 616.474,701.457 615.105,702.834 C612.507,702.264 612.683,699.881 612.224,698.097 C610.399,691.001 608.441,683.934 607.124,676.716 C606.825,675.078 606.539,673.432 605.896,671.882 C604.014,667.347 600.401,665.324 595.985,666.323 C591.759,667.278 588.933,670.963 589.299,675.578 C589.709,680.737 591.268,685.704 592.387,690.739 C593.542,695.94 595.192,701.041 596.159,706.273 C597.384,712.906 599.657,718.68 606.082,721.927 C598.673,733.188 590.515,743.83 581.732,754.101 C569.634,768.247 554.948,777.025 536.552,779.79 C533.529,780.244 529.599,780.313 529.831,785.163 C528.374,766.928 526.417,748.765 523.19,730.754 C517.738,700.324 509.647,670.728 494.929,643.324 C492.943,639.626 493.886,638.892 497.285,637.667 C544.344,620.698 582.426,592.23 609.402,549.649 C624.416,525.951 634.586,500.233 641.11,473.034 C641.88,469.827 642.958,468.059 646.461,467.061 C666.255,461.419 675.246,446.761 678.012,427.532 C679.56,416.768 679.291,405.943 676.415,395.336 C672.798,381.99 665.264,372.366 651.074,369.398 C648.477,368.855 648.266,367.323 647.95,365.225 C643.576,336.192 636.764,307.797 625.623,280.543 C613.093,249.893 596.174,222.035 573.275,197.96 C572.718,197.374 572.343,196.614 571.883,195.935" fill="#FFE26E"/>
    <path d="M500.038,801.903 C494.557,801.573 489.079,801.101 483.594,800.97 C480.54,800.897 479.436,800.414 479.863,796.761 C482.01,778.386 482.88,759.924 482.021,741.425 C481.759,735.783 481.174,730.133 480.337,724.547 C479.608,719.677 475.513,716.935 471.005,717.748 C466.864,718.494 463.99,722.461 464.598,727.043 C467.595,749.66 466.166,772.229 464.101,794.808 C463.805,798.05 462.711,798.807 459.395,798.37 C442.755,796.178 429.473,787.805 417.784,776.385 C409.563,768.353 401.484,760.176 393.258,752.149 C391.513,750.447 390.861,749.123 392.064,746.6 C406.595,716.122 420.995,685.582 435.376,655.032 C436.346,652.972 437.773,652.072 439.953,651.814 C450.708,650.539 461.339,648.446 471.711,645.437 C476.355,644.089 478.149,645.599 480.153,649.346 C490.905,669.456 498.061,690.845 503.148,712.973 C509.541,740.781 512.978,768.995 514.552,797.466 C514.736,800.793 513.899,801.96 510.546,801.719 C507.065,801.469 503.552,801.663 500.052,801.663 C500.048,801.743 500.043,801.823 500.038,801.903" fill="#94D1CC"/>
    <path d="M1297.11,494.685 C1292.36,499.54 1287.96,504.815 1282.78,509.159 C1272.45,517.823 1260.09,520.976 1246.88,519.54 C1234.76,518.221 1223.12,514.891 1212.82,507.872 C1195.02,495.732 1186.76,473.201 1192.73,452.56 C1197.97,434.48 1207.91,419.998 1224.23,409.892 C1241.83,398.989 1267.2,400.598 1283.01,413.998 C1295.04,424.194 1301.67,437.498 1306.04,452.222 C1306.32,453.175 1306.29,454.214 1307.25,454.826 C1305.36,468.49 1301.97,481.775 1297.11,494.685" fill="#FFD5BA"/>
    <path d="M1091,28.882 C1087.48,30.86 1083.87,29.042 1080.33,29.024 C1034.32,28.793 991.16,40.347 949.982,60.225 C910.928,79.078 876.311,104.197 845.318,134.421 C844.129,135.58 843.114,136.915 841.98,138.132 C836.434,144.086 836.368,144.127 841.141,150.591 C854.316,168.436 872.157,173.492 893.271,169.46 C894.241,169.275 895.216,169.111 896.192,168.96 C896.318,168.941 896.465,169.065 897.021,169.297 C889.143,178.098 879.203,182.678 868.039,184.751 C849.864,188.127 832.202,185.308 815.084,179.077 C810.312,177.339 808.166,178.489 805.541,182.405 C782.812,216.304 765.372,252.493 756.79,292.639 C752.763,311.472 751.274,330.483 752.323,349.703 C752.572,350.669 752.171,350.933 751.281,350.667 C742.06,314.362 745.922,278.626 756.69,243.415 C773.154,189.578 801.612,142.773 841.644,103.249 C882.633,62.779 931.344,36.667 988.433,27.13 C1020.54,21.767 1052.71,22.284 1084.83,27.36 C1086.92,27.689 1088.95,28.367 1091,28.882" fill="#FEFEFE"/>
    <path d="M809.383,435.627 C815.53,425.13 823.676,416.671 834.022,410.12 C853.186,397.985 879.389,400.747 895.655,416.545 C908.909,429.418 916.296,445.196 917.736,463.21 C918.591,473.906 914.183,483.931 907.759,492.837 C898.247,506.023 887.049,516.61 870.146,519.215 C862.985,520.319 855.869,519.861 848.885,518.347 C842.078,516.87 835.436,514.683 829.09,511.72 C821.918,497.039 817.812,481.359 814.217,465.536 C811.977,455.679 810.229,445.72 809.383,435.627" fill="#FFD5BA"/>
    <path d="M622.242,480.719 C615.954,481.094 610.409,484.323 604.225,485.27 C590.445,487.38 576.71,488.427 563.599,482.595 C553.109,477.929 543.995,471.034 538.468,460.801 C534.281,453.051 535.299,444.883 539.475,436.96 C548.174,420.455 561.881,411.906 580.184,409.614 C600.374,407.086 617.329,413.698 632.276,426.756 C631.063,445.14 627.734,463.131 622.242,480.719" fill="#FFDDCA"/>
    <path d="M1349.04,645.62 C1357.38,628.74 1368.13,613.254 1377.33,596.866 C1390.31,573.725 1401.94,550.015 1407.62,523.896 C1415.49,487.75 1411.11,453.148 1393.57,420.42 C1391.07,415.75 1388.26,411.211 1384.34,407.509 C1386.36,401.544 1388.39,395.579 1390.44,389.516 C1392.11,389.497 1392.82,390.99 1393.71,391.984 C1423.05,424.603 1438.1,462.578 1435.99,506.716 C1434.85,530.799 1425.95,552.251 1412.29,571.889 C1400.66,588.604 1386.7,603.374 1373.41,618.71 C1365.46,627.879 1357.87,637.352 1350.12,646.688 C1349.16,646.935 1348.7,646.675 1349.04,645.62" fill="#FEFEFE"/>
    <path d="M1064.95,772.282 C1051.38,753.225 1041.22,733.083 1032.27,712.284 C1027.77,701.829 1027.78,701.817 1037.16,695.081 C1045.27,689.255 1053.44,683.517 1061.47,677.575 C1063.48,676.083 1064.79,675.717 1067.02,677.365 C1077.87,685.366 1088.89,693.139 1099.84,701 C1101.32,702.063 1102.72,702.847 1101.68,705.354 C1091.95,728.752 1080.46,751.155 1064.95,772.282" fill="#FEFEFE"/>
    <path d="M646.091,797.506 C635.037,800.408 626.538,806.5 621.744,817.141 C617.028,827.608 620.355,836.687 630.721,841.592 C637.784,844.934 645.701,844.507 653.009,846.394 C668.284,850.337 683.444,855.26 694.111,868.049 C700.986,876.29 701.377,885.232 696.009,892.854 C694.614,894.834 693.945,895.495 691.781,893.263 C686.721,888.046 680.238,887.668 673.697,889.814 C671.126,890.658 670.353,889.998 669.372,887.803 C666.774,881.991 662.354,878.506 655.738,878.892 C653.121,879.044 652.893,877.831 652.519,875.794 C650.47,864.637 646.663,862.314 635.898,865.717 C623.788,869.544 612.46,874.905 602.45,884.216 C603.022,868.793 603.557,854.249 604.103,839.706 C604.404,831.725 604.717,823.745 605.044,815.766 C605.109,814.185 604.619,812.512 606.813,811.625 C617.586,807.269 627.375,800.703 638.633,797.43 C640.061,797.015 641.541,796.777 642.997,796.456 C644.129,796.508 645.738,795.156 646.091,797.506" fill="#FEF5E2"/>
    <path d="M382.483,729.324 C369.696,703.945 357.408,679.554 344.796,654.52 C369.366,656.569 393.214,656.637 417.85,654.577 C405.989,679.645 394.444,704.045 382.483,729.324" fill="#FEFAEE"/>
    <path d="M1358.25,427.901 C1358.44,434.83 1357.66,441.197 1355.46,447.401 C1350.07,462.565 1336.48,466.357 1324.01,465.733 C1321.96,465.631 1322.01,464.59 1322.3,463.127 C1326.33,442.862 1328.44,422.403 1328.22,401.734 C1328.2,399.305 1329.4,398.667 1331.32,398.118 C1344.37,394.394 1353.76,399.795 1356.89,412.946 C1358.09,417.987 1358.5,423.12 1358.25,427.901" fill="#FEF8EA"/>
    <path d="M112.843,405.13 C113.198,420.121 114.388,435.046 117.026,449.815 C117.647,453.291 115.925,453.254 113.488,453.201 C97.505,452.851 87.079,443.443 84.563,426.423 C83.119,416.655 83.133,406.807 86.269,397.266 C90.586,384.131 100.876,383.267 111.171,385.705 C113.234,386.193 112.941,387.524 112.897,389.141 C112.753,394.467 112.843,399.8 112.843,405.13" fill="#FEFAEE"/>
    <path d="M715.786,888.904 C717.616,868.503 707.651,855.007 691.73,844.83 C689.54,843.431 688.631,842.465 689.162,839.567 C690.234,833.72 686.86,830.146 680.593,830.184 C670.128,830.246 659.655,831.105 649.22,829.695 C646.268,829.296 643.289,828.854 640.434,828.04 C635.173,826.541 634.81,825.386 638.051,820.837 C643.121,813.72 650.792,812.24 658.746,811.883 C666.995,811.514 674.87,813.665 682.568,816.419 C690.223,819.158 697.75,822.421 706.005,822.833 C708.356,822.951 708.668,824.349 709.046,825.962 C713.284,844.063 717.507,862.168 721.732,880.272 C722.935,885.43 717.328,885.724 715.786,888.904" fill="#FEF5E2"/>
    <path d="M796.727,464.679 C788.064,462.87 781.632,457.927 778.335,449.738 C772.921,436.287 772.958,422.463 777.366,408.726 C779.067,403.425 782.561,399.451 788.202,397.91 C789.615,397.523 791.219,397.049 791.193,399.612 C790.971,421.292 793.647,442.707 797.154,464.044 C797.173,464.162 796.979,464.316 796.727,464.679" fill="#FEF8EA"/>
    <path d="M1070.49,658.698 C1086.2,657.955 1102,656.906 1118.19,654.474 C1115.68,665.119 1112.55,674.993 1109.28,684.831 C1108.75,686.406 1108.18,687.215 1106.51,685.99 C1094.45,677.159 1082.38,668.355 1070.33,659.527 C1070.28,659.49 1070.38,659.246 1070.49,658.698" fill="#FEFEFE"/>
    <path d="M1011.9,656.051 C1027.98,657.618 1043.13,658.825 1058.41,658.694 C1058.49,660.642 1056.96,660.979 1056.01,661.672 C1045.81,669.067 1035.53,676.358 1025.37,683.807 C1023.04,685.516 1021.81,686.238 1020.7,682.607 C1018.05,673.916 1015.01,665.346 1011.9,656.051" fill="#FEFEFE"/>
    <path d="M649.907,385.267 C662.96,392.988 662.626,405.238 662.582,417.054 C662.534,430.367 659.985,442.776 645.833,450.416 C649.043,428.483 650.532,407.375 649.907,385.267" fill="#FEFAEE"/>
    <path d="M655.191,915.662 C644.301,912.762 633.256,910.32 622.925,905.668 C619.168,903.976 614.073,902.167 613.688,898.074 C613.284,893.774 618.411,891.742 621.841,889.513 C625.881,886.888 630.228,884.815 635.061,883.101 C635.731,885 634.414,886.284 633.813,887.62 C632.379,890.81 630.887,893.986 630.295,897.443 C629.688,900.988 630.612,904.139 633.874,906.069 C637.238,908.06 640.515,907.687 643.541,905.153 C647.078,902.191 650.644,899.265 654.919,895.728 C655.515,898.865 655.588,901.026 654.312,903.04 C651.718,907.138 652.398,910.908 655.237,914.536 C655.493,914.797 655.572,915.051 655.473,915.298 C655.376,915.541 655.282,915.662 655.191,915.662" fill="#FEF4E2"/>
    <path d="M655.191,915.662 C655.207,915.287 655.222,914.912 655.237,914.536 C660.165,917.098 664.375,916.573 668.039,912.044 C670.575,908.91 673.902,906.726 677.762,905.319 C680.194,904.432 680.838,905.323 680.602,907.528 C680.425,909.18 680.278,910.852 679.898,912.463 C678.071,920.197 675.102,921.977 667.289,919.997 C663.124,918.941 658.991,917.757 655.191,915.662" fill="#FDF3DF"/>
    <path d="M1101.02,29.979 C1098.15,31.093 1095.33,31.868 1093.11,28.768 C1095.89,28.264 1098.34,29.873 1101.02,29.979" fill="#D2B9A0"/>
    <path d="M646.091,797.506 C645.359,796.275 643.977,796.958 642.997,796.456 C645.298,794.989 647.782,795.732 650.887,795.745 C649.13,797.133 647.761,797.696 646.091,797.506" fill="#CFBDA0"/>
    <path d="M502.415,29.607 C502.038,29.956 501.661,30.305 501.285,30.653 C499.192,29.638 496.43,29.838 495.185,27.287 C497.662,27.851 500.223,28.154 502.415,29.607" fill="#F2E8D0"/>
    <path d="M1349.04,645.62 C1349.4,645.976 1349.76,646.332 1350.12,646.688 C1349.21,648.525 1348.48,650.528 1346.11,650.999 C1346.82,649.06 1347.51,647.11 1349.04,645.62" fill="#E9DFD5"/>
    <path d="M751.281,350.667 C751.628,350.346 751.975,350.024 752.323,349.703 C753.474,351.343 753.725,352.986 752.335,354.633 C751.984,353.311 751.632,351.989 751.281,350.667" fill="#D3B89E"/>
    <path d="M1075.25,825.464 C1075.12,831.775 1070.22,836.441 1063.94,836.236 C1058.03,836.043 1053.1,830.669 1053.26,824.594 C1053.41,818.643 1058.78,813.605 1064.76,813.795 C1070.8,813.986 1075.38,819.087 1075.25,825.464" fill="#6E4100"/>
    <path d="M1064.45,892.766 C1058.05,892.777 1053.36,888.242 1053.26,881.945 C1053.16,875.883 1058.17,870.784 1064.24,870.768 C1070.53,870.751 1075.2,875.418 1075.26,881.77 C1075.31,888.28 1070.91,892.755 1064.45,892.766" fill="#6E4100"/>
    <path d="M195.04,486.66 C175.295,487.799 160.506,479.914 148.709,465.668 C141.161,456.552 140.811,446.711 146.375,436.565 C155.343,420.212 169.163,411.557 187.784,409.542 C206.417,407.526 222.782,412.523 236.426,424.781 C246.828,434.127 254.415,448.158 248.103,461.6 C242.876,472.731 233.332,479.022 222.06,482.439 C213.064,485.167 203.871,487.808 195.04,486.66" fill="#FFDDCA"/>
    <path d="M540.365,392.855 C540.492,399.332 537.891,402.981 532.953,403.254 C527.817,403.538 524.607,399.905 524.379,393.347 C524.137,386.364 521.112,380.857 515.542,376.827 C506.105,369.999 495.999,373.07 491.793,383.905 C491.193,385.449 490.835,387.154 489.942,388.506 C487.657,391.967 484.329,393.215 480.41,391.718 C476.775,390.328 474.926,387.475 475.249,383.513 C476.407,369.361 491.891,356.225 506.234,357.174 C512.701,357.601 516.692,354.892 519.107,348.497 C520.183,345.648 520.266,342.646 520.622,339.68 C521.185,334.988 523.859,332.188 527.412,332.853 C531.612,333.64 533.011,336.652 532.739,340.601 C532.241,347.847 530.667,354.805 525.967,360.568 C524.19,362.747 524.879,363.613 526.723,365.152 C535.582,372.538 540.154,382.041 540.365,392.855" fill="#4576AD"/>
    <path d="M243.405,392.936 C243.915,374.645 257.518,359.728 275.782,357.432 C282.754,356.555 286.861,352.661 288.183,345.531 C288.608,343.244 288.864,340.918 289.071,338.599 C289.412,334.769 291.643,332.726 295.273,332.867 C298.968,333.01 301.075,335.519 301.016,339.155 C300.912,345.536 299.884,351.828 296.339,357.287 C294.519,360.088 294.088,361.618 297.321,363.943 C302.883,367.942 305.981,373.963 308.024,380.429 C309.775,385.972 307.831,390.438 303.256,391.856 C298.443,393.348 294.746,391.117 292.681,385.476 C288.911,375.177 282.564,371.323 273.85,374.039 C265.715,376.575 260.046,384.299 259.41,393.715 C258.971,400.203 256.078,403.518 251.095,403.244 C246.139,402.971 243.234,399.077 243.405,392.936" fill="#4576AD"/>
    <path d="M390.098,558.176 C367.914,556.69 352.629,546.918 344.209,527.134 C343.102,524.535 342.7,522.01 344.628,519.623 C347.651,515.879 353.028,517.179 355.225,522.168 C362.654,539.034 376.703,547.436 394.923,545.852 C408.296,544.689 416.442,536.56 422.139,525.245 C422.808,523.917 423.244,522.474 423.866,521.12 C425.488,517.589 428.491,516.698 431.746,517.986 C434.902,519.235 435.878,522.068 435.069,525.434 C431.308,541.084 414.187,556.037 397.987,557.654 C395.034,557.948 392.057,558.652 390.098,558.176" fill="#6E4100"/>
    <path d="M503.804,223.569 C513.494,223.636 522.841,230.407 525.719,239.487 C526.735,242.69 527.19,246.156 523.373,247.548 C519.607,248.921 517.214,247.095 516.197,242.987 C514.461,235.973 503.35,229.471 496.369,236.697 C493.948,239.202 491.075,239.696 488.571,236.834 C486.016,233.913 487.397,231.321 489.789,229.019 C493.463,225.483 498.474,223.532 503.804,223.569" fill="#6E4100"/>
    <path d="M411.31,396.572 C409.783,400.227 407.642,404.694 403.477,407.586 C401.484,408.97 398.946,408.407 397.009,406.77 C394.846,404.943 394.316,402.298 395.471,400.01 C397.092,396.8 399.216,393.776 401.52,391.002 C403.14,389.05 405.737,389.086 407.981,390.002 C410.318,390.956 411.504,392.907 411.31,396.572" fill="#6F4300"/>
    <path d="M1135.15,299.723 C1127.04,290.707 1118.9,281.767 1112.69,271.209 C1101.63,252.407 1095.26,232.199 1093.03,210.537 C1091.04,191.176 1092.2,172.044 1096.19,153.043 C1096.59,151.098 1097.12,149.16 1097.79,147.29 C1099.31,143.049 1103.14,140.928 1107.18,141.949 C1111.24,142.974 1113.79,146.585 1113.09,151.092 C1112.12,157.318 1110.42,163.442 1109.65,169.685 C1105.04,206.936 1110.46,241.953 1133.28,272.952 C1137.34,278.464 1141.92,283.536 1147.02,288.082 C1150.31,291.019 1151.8,294.35 1151.09,298.678 C1146.27,305.196 1143.07,305.406 1135.15,299.723" fill="#6E4100"/>
    <path d="M897.343,406.353 C897.994,395.992 902.321,386.414 911.416,379.358 C913.552,377.701 913.963,376.801 912.104,374.538 C907.166,368.524 905.378,361.304 905.177,353.651 C905.069,349.529 906.991,346.864 911.236,346.665 C915.263,346.476 917.397,348.881 917.645,352.755 C918.049,359.055 919.382,364.829 924.299,369.395 C926.187,371.149 927.882,371.839 930.437,371.578 C947.003,369.884 961.216,380.297 964.478,396.36 C965.372,400.768 963.298,404.62 959.362,405.858 C955.081,407.206 950.989,405.245 949.207,400.991 C944.356,389.412 939.86,386.142 930.811,387.61 C921.19,389.171 914.01,397.486 913.335,407.849 C912.938,413.939 910.54,416.964 905.913,417.212 C900.644,417.495 897.241,413.587 897.343,406.353" fill="#6E4100"/>
    <path d="M1154.11,375.356 C1149.18,368.569 1146.75,361.307 1146.94,353.171 C1147.04,349.144 1148.96,346.766 1152.91,346.66 C1156.86,346.554 1158.99,348.906 1159.27,352.852 C1159.51,356.181 1159.78,359.525 1161.15,362.603 C1163.53,367.922 1166.99,371.123 1173.49,371.675 C1192.37,373.281 1206.5,389.341 1206.29,408.061 C1206.23,413.695 1203.41,417.087 1198.67,417.22 C1193.74,417.358 1190.61,413.953 1190.29,408.114 C1189.71,397.404 1183.03,389.388 1173.24,387.637 C1165.19,386.197 1159.17,389.625 1155.84,397.546 C1152.54,405.388 1148.81,407.842 1143.64,405.578 C1138.78,403.451 1137.97,398.79 1141.02,391.249 C1143.66,384.73 1147.88,379.515 1154.11,375.356" fill="#6E4100"/>
    <path d="M1054.1,559.694 C1034.38,559.698 1020,544.182 1014.54,530.237 C1013.31,527.089 1014.37,524.118 1017.64,522.791 C1021.21,521.341 1024.21,522.43 1025.86,526.114 C1028.9,532.938 1033.19,538.718 1039.49,542.881 C1053.32,552.004 1067.66,548.089 1075.25,533.065 C1076.22,531.146 1076.98,529.124 1077.82,527.14 C1079.31,523.606 1082.01,522.522 1085.5,523.639 C1089.03,524.764 1089.99,527.68 1089.1,530.844 C1084.62,546.813 1071.02,560.165 1054.1,559.694" fill="#6E4100"/>
    <path d="M943.198,239.173 C943.078,242.166 941.768,243.874 939.43,244.933 C936.742,246.151 934.567,245.217 932.678,243.346 C924.518,235.261 918.451,235.883 912.099,245.495 C910.225,248.332 907.661,249.576 904.43,248.163 C901.206,246.755 900.324,244.018 901.123,240.722 C902.809,233.768 912.43,226.669 921.269,225.807 C930.198,224.936 939.486,229.671 942.536,236.699 C942.92,237.586 943.046,238.586 943.198,239.173" fill="#6E4100"/>
    <path d="M1050.07,413.646 C1050.3,417.135 1049.17,418.911 1047.14,420.004 C1044.96,421.178 1042.45,421.383 1040.66,419.58 C1037.76,416.656 1035.3,413.266 1033.95,409.323 C1033.13,406.928 1034.09,404.724 1036.14,403.201 C1038,401.82 1040.22,401.278 1042.17,402.648 C1046.36,405.59 1048.4,410.085 1050.07,413.646" fill="#6F4300"/>
    <path d="M740.171,759.795 C732.018,759.647 726.937,752.023 730.584,745.574 C737.701,732.985 745.37,720.697 753.156,708.505 C755.904,704.203 761.952,703.486 766.119,706.088 C770.371,708.742 772.494,714.353 769.965,718.707 C762.698,731.217 755.095,743.534 747.447,755.817 C745.693,758.635 742.709,759.924 740.171,759.795" fill="#FF7164"/>
    <path d="M669.96,705.635 C672.017,692.88 674.08,678.931 676.596,665.063 C677.588,659.592 682.977,656.672 688.447,657.77 C693.713,658.828 696.97,663.907 696.025,669.981 C694.316,680.96 692.471,691.919 690.671,702.884 C690.294,705.174 690.017,707.495 689.433,709.734 C688.021,715.151 683.484,718.236 678.317,717.467 C673.165,716.701 669.735,712.353 669.96,705.635" fill="#FF7164"/>
    <path d="M606.082,721.927 C601.191,721.486 598.141,718.81 596.896,714.137 C593.65,701.952 590.49,689.742 588.177,677.339 C586.987,670.956 590.136,665.811 595.575,664.726 C601.672,663.511 606.418,666.727 607.86,673.448 C609.979,683.318 611.815,693.251 615.105,702.832 C615.421,704.59 615.679,706.359 616.062,708.1 C617.84,716.17 614.392,720.966 606.082,721.927" fill="#FF7164"/>
  </g>
</svg>
