<?xml version="1.0" encoding="UTF-8"?>
<!DOCTYPE svg PUBLIC "-//W3C//DTD SVG 1.1//EN" "http://www.w3.org/Graphics/SVG/1.1/DTD/svg11.dtd">
<!-- Creator: CorelDRAW X6 -->
<svg xmlns="http://www.w3.org/2000/svg" xml:space="preserve" width="6.68055in" height="1.79166in" version="1.1" style="shape-rendering:geometricPrecision; text-rendering:geometricPrecision; image-rendering:optimizeQuality; fill-rule:evenodd; clip-rule:evenodd"
viewBox="0 0 6681 1792"
 xmlns:xlink="http://www.w3.org/1999/xlink">
 <defs>
  <style type="text/css">
   <![CDATA[
    .fil3 {fill:#282828;fill-rule:nonzero}
    .fil1 {fill:#2A8451;fill-rule:nonzero}
    .fil0 {fill:#3F3F89;fill-rule:nonzero}
    .fil2 {fill:#EE7836;fill-rule:nonzero}
   ]]>
  </style>
 </defs>
 <g id="Layer_x0020_1">
  <metadata id="CorelCorpID_0Corel-Layer"/>
  <path class="fil0" d="M3215 590c-49,138 -185,121 -185,121l-185 0 73 -272c0,0 117,1 195,1 95,0 129,75 102,150zm389 -127c30,-238 -152,-338 -378,-338 -106,0 -596,0 -596,0l-352 1282 379 0 107 -395 302 2c0,0 467,20 539,-551z"/>
  <path class="fil0" d="M1440 475l345 0 -142 547c0,0 -35,122 79,131 90,7 157,-100 179,-173 29,-96 141,-506 141,-506l356 0 -271 932 -311 0 38 -133c0,0 -159,193 -394,170 -209,-21 -227,-172 -191,-362 18,-93 170,-607 170,-607z"/>
  <path class="fil0" d="M3923 1217c-59,15 -131,23 -145,-31 -39,-147 306,-190 306,-190 2,134 -115,210 -161,221zm522 -270c46,-155 103,-302 57,-383 -71,-124 -199,-135 -387,-135 -207,0 -463,39 -546,315 130,0 345,0 345,0 0,0 31,-104 161,-97 115,6 108,85 66,128 -74,76 -279,34 -505,113 -198,69 -267,329 -224,433 42,101 119,114 224,124 168,17 297,-77 357,-132 0,61 2,95 2,95l363 0 -1 -34c0,0 -32,-9 -29,-54 3,-33 65,-193 118,-371z"/>
  <path class="fil0" d="M953 587c-49,113 -201,101 -201,101l-177 -1 65 -240c0,0 158,1 236,1 83,0 109,67 77,140zm402 -164c30,-238 -180,-299 -407,-299 -106,0 -596,0 -596,0l-352 1282 379 0 118 -435 212 2c0,0 88,-5 89,77 2,88 -65,249 -61,356 50,0 389,0 389,0l-1 -34c0,0 -32,-9 -29,-54 1,-19 22,-79 50,-159 16,-36 41,-120 39,-189 -3,-86 -57,-126 -134,-153 242,-57 302,-394 302,-394z"/>
  <path class="fil0" d="M4609 475l352 0 0 559 304 -559 323 0 -651 1130c0,0 -60,95 -135,145 -62,41 -137,39 -160,41 -129,-1 -284,-1 -284,-1l75 -269 121 0c0,0 55,-6 77,-33 20,-26 31,-52 31,-90 0,-57 -52,-922 -52,-922z"/>
  <polygon class="fil1" points="6039,260 5633,1673 6394,967 "/>
  <polygon class="fil2" points="5779,260 5373,1673 6133,967 "/>
  <path class="fil3" d="M6535 4c-77,0 -140,63 -140,140 0,77 63,140 140,140 77,0 140,-63 140,-140 0,-77 -63,-140 -140,-140zm0 294c-85,0 -154,-69 -154,-154 0,-85 69,-154 154,-154 85,0 154,69 154,154 0,85 -69,154 -154,154z"/>
  <polygon class="fil3" points="6461,201 6461,105 6425,105 6425,92 6511,92 6511,105 6475,105 6475,201 "/>
  <path class="fil3" d="M6533 201l0 -109 22 0 26 77c2,7 4,13 5,16 1,-4 3,-10 6,-18l26 -76 19 0 0 109 -14 0 0 -91 -32 91 -13 0 -32 -93 0 93 -14 0z"/>
 </g>
</svg>
