<svg xmlns="http://www.w3.org/2000/svg" viewBox="0 0 291.76 91.31"><defs><style>.cls-1{fill:#2394bc;}.cls-2{fill:#efc75e;}</style></defs><title>Asset 1</title><g id="Layer_2" data-name="Layer 2"><g id="Layer_1-2" data-name="Layer 1"><path class="cls-1" d="M119.26,0,104.62,91.12H128L142.66,0Zm70.6,37.12c-8.18-4-13.2-6.77-13.2-10.9.1-3.75,4.24-7.6,13.49-7.6A40.72,40.72,0,0,1,207.58,22l2.13,1,3.18-19.06a59.06,59.06,0,0,0-21-3.76c-23.11,0-39.39,12-39.49,29.2C152.2,42,164,49,172.91,53.27,182,57.6,185,60.41,185,64.25c-.1,5.91-7.32,8.64-14.06,8.64-9.33,0-14.35-1.41-22-4.7l-3.08-1.4L142.66,86.6c5.5,2.44,15.61,4.59,26.11,4.71,24.56,0,40.55-11.84,40.75-30.16C209.6,51.11,203.35,43.41,189.86,37.12Zm83-36.84H254.78c-5.58,0-9.82,1.61-12.23,7.33L207.78,91.12h24.56L239.11,73h27.48l3.51,18.15h21.66Zm-27,54.52c.48,0,9.43-29.52,9.43-29.52l7.13,29.52ZM85.06,0,62.13,61.91,59.63,49.7c-4.24-14.09-17.53-29.4-32.37-37L48.26,91H73l36.8-91H85.06Z"/><path class="cls-2" d="M51.92,11.75C50.13,4.8,44.43.12,36.69,0H.37L0,1.7c28.33,7,52.11,28.48,59.82,48.69Z"/></g></g></svg>